<svg width="894.7" height="764.6" xmlns="http://www.w3.org/2000/svg">
 <style type="text/css">.st0{opacity:0.1;fill:#E9618D;enable-background:new    ;}
	.st1{fill:#F5F5F5;}
	.st2{opacity:0.1;enable-background:new    ;}
	.st3{fill:#3AD29F;}
	.st4{fill:none;stroke:#FFFFFF;stroke-width:7;stroke-linecap:round;stroke-miterlimit:10;}
	.st5{opacity:0.4;}
	.st6{opacity:0.3;enable-background:new    ;}
	.st7{opacity:0.1;fill:#FFFFFF;enable-background:new    ;}
	.st8{opacity:0.5;}
	.st9{fill:url(#SVGID_1_);}
	.st10{fill:#FDA57D;}
	.st11{fill:#464C6D;}
	.st12{opacity:5.000000e-02;enable-background:new    ;}
	.st13{fill:#E9618D;}
	.st14{fill:#333333;}
	.st15{fill:#47E6B1;}
	.st16{opacity:0.5;fill:#4D8AF0;enable-background:new    ;}
	.st17{opacity:0.5;fill:#F55F44;enable-background:new    ;}
	.st18{opacity:0.5;fill:#47E6B1;enable-background:new    ;}</style>

 <title>Artboard 1</title>
 <g>
  <title>background</title>
  <rect fill="none" id="canvas_background" height="402" width="582" y="-1" x="-1"/>
 </g>
 <g>
  <title>Layer 1</title>
  <polygon id="svg_2" points="672.8,185.5 625.9,171.3 623,235.4 672.4,250.3 " class="st1"/>
  <polygon id="svg_3" points="342.8,85.7 342.8,151 623,235.4 625.9,171.3 " class="st1"/>
  <polygon id="svg_4" points="672.8,185.5 625.9,171.3 623,235.4 672.4,250.3 " class="st2"/>
  <polygon id="svg_5" points="672.8,308.3 625.9,294.1 623,358.2 672.4,373.1 " class="st3"/>
  <polygon id="svg_6" points="342.8,208.5 342.8,273.7 623,358.2 625.9,294.1 " class="st3"/>
  <polygon id="svg_7" points="672.8,308.3 625.9,294.1 623,358.2 672.4,373.1 " class="st2"/>
  <polyline id="svg_8" points="637.8,330.9 645.5,342.4 660.9,323.2 " class="st4"/>
  <g id="svg_9" class="st5">
   <line id="svg_10" y2="223.4" x2="653.6" y1="196.6" x1="638.3" class="st4"/>
   <line id="svg_11" y2="219.6" x2="638.3" y1="200.4" x1="657.5" class="st4"/>
  </g>
  <polygon id="svg_12" points="672.8,423.4 625.9,409.2 623,473.3 672.4,488.2 " class="st1"/>
  <polygon id="svg_13" points="342.8,323.6 342.8,388.9 623,473.3 625.9,409.2 " class="st1"/>
  <polygon id="svg_14" points="672.8,423.4 625.9,409.2 623,473.3 672.4,488.2 " class="st2"/>
  <g id="svg_15" class="st5">
   <line id="svg_16" y2="461.4" x2="653.6" y1="434.5" x1="638.3" class="st4"/>
   <line id="svg_17" y2="457.5" x2="638.3" y1="438.3" x1="657.5" class="st4"/>
  </g>
  <ellipse id="svg_18" ry="19.2" rx="9.6" cy="296.4" cx="536.6" class="st6"/>
  <ellipse id="svg_19" ry="161.2" rx="80.6" cy="296.4" cx="536.6" class="st0"/>
  <ellipse id="svg_20" ry="88.3" rx="44.1" cy="296.4" cx="536.6" class="st7"/>
  <g id="svg_21" class="st8">
   <path id="svg_22" d="m545.5,299c-3.9,-11.8 -27.4,4.2 -27.4,4.2l-1.9,2.6l-41.6,56.3l-102,-57l0,-25.5c19.4,-2.2 33.4,-19.7 31.3,-39.1l-0.3,-2.1c5.1,-2 9.3,-6.2 13.2,-10.4c3.6,-3.8 7.4,-8.4 7,-13.4c0.1,-0.8 0,-1.6 -0.1,-2.4c-0.8,-4.2 -4.6,-7.3 -8.7,-8.8c-4.1,-1.5 -8.5,-1.7 -12.7,-2.6c-10.1,-2 -19.2,-7.3 -29.1,-10.2c-4.5,-1.3 -9.1,-2.2 -13.7,-2.6c-3.3,-0.3 -6.8,-0.3 -9.9,1.1c-3.4,1.5 -5.8,4.5 -8.5,7c-3.3,3 -7,5.5 -11.1,7.2c-6.1,2.6 -13,3.7 -18.5,7.3c-1.5,0.9 -2.8,2.2 -3.7,3.7c-0.8,1.7 -1.1,3.5 -1,5.3c0,1.6 0.1,3.2 0.4,4.8c1,6.8 2.1,13.7 5.5,19.6c2.8,4.8 7,8.7 11.1,12.5l9.3,8.5c1.9,1.7 3.9,3.9 6.4,4.7c-0.2,-1.1 0.5,-2.3 1.4,-3.5l-3,21c-5.6,-1.7 -11.4,-2.6 -17.2,-2.7c-7.9,-0.1 -15.9,1.3 -19.3,6.7c-0.2,0.3 -0.4,0.6 -0.5,1c-10.9,12.9 -35.8,54.6 -21.1,156c-1.3,12.4 -2,20.3 -2,20.3l0.1,1.2l-0.1,0.9l0.2,0.1l8.1,112l-16,110.3l3.5,0l0,12.3l-3.9,0l0,19.7c0,0 54.7,-3.5 63.1,-15.8c6.9,-10.2 -27.5,-6.2 -39.4,-4.5l0,-7.5l0.2,0l0,-4.2l4.2,0l15.8,-74.9c16.2,-28 7.9,-98.1 7.9,-98.1l19.7,11.8l15.7,82.4l-11.8,122.2l3.5,0l0,8.5l-4.6,0l0,19.7c0,0 54.7,-3.5 63.1,-15.8c6.9,-10.2 -27.5,-6.2 -39.4,-4.5l-1.3,-8l2.4,0l15.6,-110.3c7.8,-29.9 -2.8,-117.6 -4.2,-128.8l19.5,-129.1l-0.3,-0.4l0.3,-1.8l78.8,27.6c0,0 7.9,7.9 16,-15.6c7.6,-21.9 28.3,-51.2 31,-55l0.3,-0.4c0,0.1 23.7,-11.7 19.7,-23.5z" class="st9"/>
  </g>
  <polygon id="svg_23" points="277.1,683.5 277.1,702.7 296.3,702.7 296.3,675.8 " class="st10"/>
  <polygon id="svg_24" points="350,721.9 350,744.9 369.2,741.1 365.4,718 " class="st10"/>
  <path id="svg_25" d="m308,292.3c0,0 -45.8,34.3 -23.2,168.6l23.2,-168.6z" class="st11"/>
  <polygon id="svg_26" points="367.5,733.6 365.6,722.1 350.3,725.9 350.3,733.6 " class="st12"/>
  <polygon id="svg_27" points="277.3,691.4 296.5,691.4 296.5,679.9 277.3,687.5 " class="st12"/>
  <polygon id="svg_28" points="342.8,269.5 339,296.4 373.5,315.5 373.5,277.2 " class="st10"/>
  <path id="svg_29" d="m273.7,687.3l15.4,-107.4l-8.1,-111.3l99.8,26.9c0,0 12.3,95.5 4.3,126.6l-15.3,107.4l-23,0l11.5,-119l-15.3,-80.2l-19.2,-11.5c0,0 8.1,68.3 -7.7,95.5l-15.5,73l-26.9,0z" class="st13"/>
  <path id="svg_30" d="m541.9,303.6c-3.8,-11.5 -26.6,4.1 -26.6,4.1l-1.9,2.5l9.1,16.8l0.3,-0.4c-0.1,0 22.9,-11.5 19.1,-23z" class="st10"/>
  <path id="svg_31" d="m342.4,294.2c0,0 -30.7,-8.1 -38.4,3.8c-7.7,11.9 -23,172.7 -23,172.7s45.6,38.4 99.8,26.9l19.2,-126.6l-57.6,-76.8z" class="st12"/>
  <path id="svg_32" d="m472.8,365l-121.3,-67.8c-8.8,-4.9 -18.7,-7.6 -28.8,-7.8c-7.7,-0.1 -15.4,1.3 -18.8,6.5c-7.7,11.9 -23,172.7 -23,172.7s45.6,38.4 99.8,26.9l19.2,-126.7l76.8,26.9c0,0 7.7,7.7 15.6,-15.1c7.4,-21.3 27.6,-49.9 30.2,-53.6l-9.1,-16.8l-40.6,54.8z" class="st11"/>
  <path id="svg_33" d="m342.3,275.4c6.5,8.4 16.6,13.2 27.2,13.2c1.3,0 2.6,-0.1 3.8,-0.2l0,-7.5l-30.7,-7.7l-0.3,2.2z" class="st12"/>
  <circle id="svg_34" r="34.5" cy="250.3" cx="369.7" class="st10"/>
  <path id="svg_35" d="m273.3,699.3l0,19.2c0,0 53.3,-3.4 61.4,-15.4s-42.2,-3.8 -42.2,-3.8l-19.2,0z" class="st14"/>
  <path id="svg_36" d="m345.6,737.8l0,19.2c0,0 53.3,-3.4 61.4,-15.4s-42.2,-3.8 -42.2,-3.8l-19.2,0z" class="st14"/>
  <path id="svg_37" d="m347.8,266.1l13.5,-19.3c2,-2.9 4,-5.8 6.8,-7.9c2.8,-2.1 6.5,-3.3 9.8,-2.2c2,0.8 3.8,1.9 5.4,3.3c5,3.7 11.2,6.4 17.4,5.3c6.4,-1.2 11.4,-6.2 15.8,-10.9c3.7,-3.9 7.7,-8.8 6.7,-14.1c-0.8,-4.1 -4.5,-7.1 -8.5,-8.6s-8.2,-1.7 -12.4,-2.5c-9.8,-1.9 -18.7,-7.1 -28.3,-10c-4.4,-1.3 -8.9,-2.2 -13.4,-2.6c-3.3,-0.3 -6.7,-0.3 -9.6,1.1c-3.3,1.5 -5.6,4.3 -8.3,6.8c-3.2,3 -6.8,5.3 -10.8,7c-5.9,2.5 -12.6,3.6 -18,7.1c-1.5,0.9 -2.7,2.1 -3.6,3.6c-1.4,2.6 -1,5.7 -0.6,8.6c0.9,6.6 2,13.3 5.4,19.1c2.7,4.7 6.8,8.5 10.8,12.1l9,8.3c1.8,1.7 3.8,3.7 6.2,4.6c-0.4,-2.9 5,-6.3 6.7,-8.8z" class="st12"/>
  <path id="svg_38" d="m347.8,264.8l13.5,-19.3c2,-2.9 4,-5.8 6.8,-7.9c2.8,-2.1 6.5,-3.3 9.8,-2.2c2,0.8 3.8,1.9 5.4,3.3c5,3.7 11.2,6.4 17.4,5.3c6.4,-1.2 11.4,-6.2 15.8,-10.9c3.7,-3.9 7.7,-8.8 6.7,-14.1c-0.8,-4.1 -4.5,-7.1 -8.5,-8.6s-8.2,-1.7 -12.4,-2.5c-9.8,-1.9 -18.7,-7.1 -28.3,-10c-4.4,-1.3 -8.9,-2.2 -13.4,-2.6c-3.3,-0.3 -6.7,-0.3 -9.6,1.1c-3.3,1.5 -5.6,4.3 -8.3,6.8c-3.2,3 -6.8,5.3 -10.8,7c-5.9,2.5 -12.6,3.6 -18,7.1c-1.5,0.9 -2.7,2.1 -3.6,3.6c-1.4,2.6 -1,5.7 -0.6,8.6c0.9,6.6 2,13.3 5.4,19.1c2.7,4.7 6.8,8.5 10.8,12.1l9,8.3c1.8,1.7 3.8,3.7 6.2,4.6c-0.4,-2.8 5,-6.3 6.7,-8.8z" class="st14"/>
  <polyline stroke-linecap="round" id="svg_66" points="112.85000610351562,138 112.85000610351562,138 " fill-opacity="null" stroke-opacity="null" stroke-width="null" stroke="null" fill="none"/>
 </g>
</svg>