<svg width="676" height="480" xmlns="http://www.w3.org/2000/svg">
 <g>
  <title>background</title>
  <rect x="-1" y="-1" width="678" height="482" id="canvas_background" fill="none"/>
 </g>

 <g>
  <title>Layer 1</title>
  <path fill="#EDF4F4" d="m555.5,371.8c0,0 -282,51.9 -332.4,-184.6s175.9,-133.2 208.7,-81c32.7,52.2 48.6,71.1 85.8,72.8c-0.1,-0.1 310.2,81.5 37.9,192.8z" id="svg_1"/>
  <polygon fill="#FDFDFC" points="416.20001220703125,293.29998779296875 404.9000244140625,291.8999938964844 404.9000244140625,275.3999938964844 431.9000244140625,277.1000061035156 440.5,285.8999938964844 425.5,293.29998779296875 " id="svg_2"/>
  <polygon fill="#FFFFFF" points="468.29998779296875,145.70001220703125 464.70001220703125,152.29998779296875 459,172.39999389648438 465.5999755859375,210.29998779296875 470.4000244140625,218.10000610351562 476.29998779296875,240.89999389648438 478.4000244140625,274.29998779296875 454.5999755859375,285.6000061035156 486.79998779296875,279 493.70001220703125,269.3999938964844 489.70001220703125,218.79998779296875 498,179.60000610351562 499.5,159.29998779296875 " id="svg_3"/>
  <path fill="#E9E6EB" d="m451.7,118.3l-2.9,2.9c0,0 10,0.3 11.8,-1.6s1.8,-2 1.8,-2l-6.8,0l-3.9,0.7z" id="svg_4"/>
  <polygon fill="#F5CFB0" points="414.79998779296875,102 416.20001220703125,82.69999694824219 422.5,82.69999694824219 425.29998779296875,85.19999694824219 425.29998779296875,91.30000305175781 426.5,95.60000610351562 423.20001220703125,101.19999694824219 414.79998779296875,105 " id="svg_5"/>
  <path fill="#F5CFB0" d="m383.6,76.6c0,0 -2.1,8.8 1.3,11.9c3.3,3.1 2,11.3 2,11.3l4.1,4.4l16.7,0l6.4,-8.2l2.1,-19.3l-13,-15.5l-19.6,15.4z" id="svg_6"/>
  <path fill="#E9E6EB" d="m455.9,312.2l-33.4,0c-4.1,0 -7.5,-3.4 -7.5,-7.5l0,0c0,-4.1 3.4,-7.5 7.5,-7.5l33.4,0c4.1,0 7.5,3.4 7.5,7.5l0,0c0,4.1 -3.4,7.5 -7.5,7.5z" id="svg_7"/>
  <path fill="#E9E6EB" d="m511.7,146.6c-0.8,4.4 -1.6,8.8 -2.4,13.3c-0.1,0.8 -0.1,1.7 -0.2,2.5c-1.7,9.3 -3.4,18.7 -6.6,27.7c-0.5,1.3 -1,2.5 -2.5,2.9c-3.9,-2.6 -3.3,-7 -3.1,-10.5c0.2,-3.5 -2.7,-2.2 -3.6,-3.7c-1.9,-5.1 0.6,-9.7 1.6,-14.4c2.4,-11.5 5.5,-22.9 1.8,-34.7c-0.1,-0.8 0,-1.7 0.2,-2.5c3.5,-3 6.1,-1.1 7.6,2c1.9,3.8 4.5,7.1 6.4,10.9c0.4,2.1 0.6,4.3 0.8,6.5z" id="svg_13"/>
  <path fill="#E9E6EB" d="m511.1,140.1c-3.4,-2.3 -6.8,-4.5 -7.5,-9.3c-0.4,-3 -2.8,-4.3 -6,-3.9c-7.7,2 -11.2,-3.2 -14.6,-8.6c9.2,0 16.4,5.5 24.5,8.6c0.7,1.1 1.5,2.2 2.2,3.2c0.4,3.4 2.4,6.5 1.4,10z" id="svg_14"/>
  <path fill="#FDFDFC" d="m497.6,126.9c-6.4,-0.2 -9.2,-6.6 -14.6,-8.6c-0.1,-0.4 -0.2,-0.8 -0.3,-1.2c-0.4,0 -0.8,0 -1.2,0c-5.4,3.4 -11.3,0 -17,-0.5c-0.3,0.3 -0.6,0.5 -1.1,0.7c-1.7,7.2 3.7,11.7 7.4,16.7c1.5,0.9 3.1,1 4.8,0.5c2.6,-1.1 5,-5 7.9,-0.4c5.5,0.1 10.8,-0.4 14.2,-5.6c0,-0.5 0,-1.1 -0.1,-1.6z" id="svg_15"/>
  <path fill="#FBDA72" d="m464.5,116.6c-0.2,0.2 -0.4,0.3 -0.6,0.5c1.1,0 2.2,0 3.3,0c-0.9,-0.3 -1.8,-0.5 -2.7,-0.5z" id="svg_16"/>
  <path fill="#FBDA72" d="m462.9,121.5c-1.3,-1.8 -1.8,-2.7 -0.6,-3.9c-0.5,0.1 -0.9,0.2 -1.4,0.3c-0.5,0.5 -1.3,0.8 -2.2,0.8c-3.2,0 -6.3,-0.1 -9.5,-0.1c-0.3,0 -0.6,0 -0.8,-0.1c-1,0 -2.1,-0.1 -3.1,-0.1c-2.2,5.6 -3.9,11.4 -7.9,16.1c-0.3,0.8 -0.4,1.6 -0.5,2.4c2.6,4.9 0.6,9.9 0.4,14.9c2.5,5.5 3.9,11.7 9.2,15.6c1.1,2.1 -2.1,4.7 0.8,6.6c4.1,0.6 5.5,-2.8 7.4,-5.3c2.5,-3.3 2.5,-3.4 5.8,-2.6c1.3,-6.1 3.1,-12.1 6,-17.7c5.1,-9.9 2.3,-18.7 -3.6,-26.9z" id="svg_17"/>
  <path fill="#E9E6EB" d="m486.2,239c-3.6,-12.8 -1.9,-25.4 1.6,-37.9c1.9,-7.1 4.8,-13.9 5,-21.4c0.5,0 1.1,0 1.6,0c1.2,0.2 2,-4.2 3.6,0c1.7,4.4 1,8.9 1.5,13.4l0,-0.1c-2.8,3.9 -3.9,8.8 -4.3,13c-0.9,10.6 -8.7,19.4 -7.5,30.4c0.2,0.9 -0.7,1.8 -1.5,2.6z" id="svg_18"/>
  <path fill="#282127" d="m380.3,392.4c0.2,4.6 5,10.4 -3.2,13c-3.7,3 -7.8,2.5 -12,1.3c-2.1,-0.8 -4.5,-0.7 -6.6,-1.6c-0.8,-0.4 -1.5,-1 -2,-1.8c-5.1,-15.3 -7.7,-31.3 -12.5,-46.7c-0.6,-1.8 -0.8,-3.8 0,-5.6c4.9,-2.1 6.3,1.4 7.2,4.9c1.1,4.2 2.3,8.3 4.1,12.2c0.3,0.7 0.6,1.5 0.8,2.3c1.9,7.5 2.5,15.3 4.9,22.8c1.3,4 2.7,5.2 6.4,4.4c1.5,1.1 2.1,3.5 4.6,3.1c3.1,-1.1 2.8,-3.1 2.3,-5.9c-2.7,-15.6 -7.3,-30.7 -10.1,-46.2c-1.3,-7.3 -4.8,-14.2 -3.3,-21.9c0.3,-0.9 0.7,-1.7 1.3,-2.3c0.9,-0.4 1.7,-0.3 2.5,0.3c4.2,6.4 4.8,14 5.8,21c1.5,10.8 4.9,21.1 6.6,31.8l-0.2,-0.1c1.1,5.1 4.5,9.6 3.4,15z" id="svg_19"/>
  <path fill="#E2CFA4" d="m363.7,406c4.5,-0.2 8.9,-0.4 13.4,-0.6c1.2,2.7 1.3,5.3 0,8c-4.6,-0.1 -8.9,-1.1 -13.2,-2.8c-0.2,-1.2 -0.3,-2.4 -0.5,-3.6c0.1,-0.3 0.2,-0.6 0.3,-1z" id="svg_20"/>
  <path fill="#261F14" d="m400.1,417.3c-4.1,-1.1 -3.3,-2.7 -0.5,-4.7c2.8,-2.1 6.7,-2.3 8.8,-5.5c0.7,-0.5 1.3,-1.1 2,-1.6c1.7,-1.7 3.4,-3.3 6.2,-2.4c1.6,1 1,2.8 1.7,4.1c0.2,2.2 0.4,4.3 0.6,6.5c-2.9,0.9 -5.8,1.9 -8.7,2.8c-3.4,0.2 -6.7,0.5 -10.1,0.8z" id="svg_21"/>
  <path fill="#FDFDFC" d="m482.9,133.5c-2.2,0 -4.4,0 -6.6,0c0.1,-3.4 2.8,-3.7 5,-3.7c2.3,0 1.3,2.3 1.6,3.7z" id="svg_22"/>
  <path fill="#FBB218" d="m438.2,184.5c2.8,-3.9 5.6,-7.7 8.4,-11.6c5.2,0.1 6.2,-4.9 8.3,-7.8c3.7,-5 3.2,1 4.7,1.3c2.2,8.8 4.4,17.6 6.6,26.4c0.1,1.6 0.2,3.2 0.4,4.9c2.1,5.3 3.7,10.6 4.1,16.4c0.4,6.5 -2.1,9.1 -8.3,9c-3,0 -6,0.1 -9,0c-3.9,-0.1 -7.8,-1.6 -11.7,0c-0.8,0.3 -1.7,0.4 -2.5,0.4c-1.3,-0.2 -2.5,-0.4 -2.8,-2c0.7,-3.3 3.4,-4 6.2,-4.4c2.4,-0.3 4.9,-0.2 7.4,-0.2c12.3,-0.2 13.1,-1.1 9.5,-12.7c-1.9,-6.2 -1.2,-12.5 -2.1,-18.7c-0.4,-2.9 -0.8,-5.9 -2.9,-9.4c-4.2,4.4 -7.8,9 -11.8,13.3c-2.4,2.6 -4.6,5.7 -9,3.8c-2.9,-5 2.1,-6.1 4.5,-8.7z" id="svg_23"/>
  <path fill="#FBB218" d="m444.9,118.3c-0.7,2 -2.4,3.7 -5.2,3.7l-4.1,0c-0.5,0 -1,-0.1 -1.4,-0.2c-0.8,7.8 -1.9,15.4 -5.6,22.7c-1.3,2.5 -0.7,5.9 1.3,8.5c0.7,0.6 1.5,0.7 2.4,0.3c3.6,-4.9 5.3,-10.6 6.2,-16.5c0,-0.5 0,-1.1 0.1,-1.6c2.5,-5.5 4.5,-11.2 6.9,-16.8c-0.4,-0.1 -0.5,-0.1 -0.6,-0.1z" id="svg_24"/>
  <path fill="#FBDA72" d="m438.4,151.6c-1.7,2.4 -4.3,1.4 -6.5,1.7c0.1,-6.3 4.1,-11.1 6.5,-16.6c4.8,5 1.5,9.9 0,14.9z" id="svg_25"/>
  <path fill="#FBB218" d="m435.5,121.9c-2.3,0 -3.9,-1.1 -4.7,-2.6c-1.3,0.2 -2.7,0 -3.9,-0.6c-1.2,1.6 -3.1,2.8 -5.5,3.9c-8.9,4.1 -18.4,4.5 -27.6,6.8c-4.8,1.2 -9.5,3.7 -8.1,9.5c2.5,10.9 -1.5,22.6 3.9,33.1c1.3,2.5 -0.2,4.7 -1.4,6.9c-0.3,0.8 -0.4,1.7 -0.4,2.5c1,3.9 3.9,4.8 7.4,4.3c4,-0.6 8,-0.1 11.9,-1c2.5,-0.6 4.5,-2.1 6.4,-3.8c1.6,-2.2 3.2,-4.4 4.7,-6.5c4.4,-7.1 8.8,-14.3 13.2,-21.4c-2.2,-4.1 -1.8,-8 0.3,-12.2c3.1,-6.1 5,-12.4 4.9,-18.9l-1.1,0z" id="svg_26"/>
  <path fill="#E9E6EB" d="m502.7,271.9c-2.8,3.6 -3.6,7.7 -3.8,12.2c-0.7,11.7 -2.8,13.8 -14.4,15.9c-7.6,-0.4 -15.2,-0.9 -22.7,0.4c3.6,-3.5 8.2,-3.6 12.7,-3.7c4.6,-0.1 9.4,0.9 12.9,-3.4c0.4,-0.5 1.5,-1 2.2,-0.9c4.8,0.7 5.7,0.1 6.4,-4.6c0.5,-3.5 0.2,-7 1.3,-10.5c1.1,-3.4 -1.2,-5 -4.4,-5.3l0,0c0.9,-8.1 -1.1,-15.4 -4.7,-22.7c-1.5,-3 -1.3,-6.8 -1.8,-10.3c0,-4.3 0,-8.7 0,-13c0,-2.9 -0.5,-5.9 3.6,-7.2c3.6,-1.2 2.8,-4.8 3,-7.7c0.6,-6.7 1.9,-13.1 6.8,-18.2c-2.6,14.3 -7.7,28.4 -3.8,43.4c1.7,6.6 3.1,13.2 5.1,19.7c1.5,5.2 2.5,10.4 1.6,15.9z" id="svg_27"/>
  <path fill="#261F14" d="m438.3,397.2c3.4,9.2 3.5,9.4 -10.3,13.4c-9,2.6 -3.9,-6 -6.5,-8.6c-0.7,-2.5 -1.1,-5.4 2.5,-5.4c4.7,0.1 9.6,-2.3 14.3,0.6z" id="svg_28"/>
  <path fill="#E1CEAE" d="m438.3,397.2c-4.6,0.2 -9.2,2 -13.9,1.1c-3.3,-0.6 -2.3,2.2 -2.9,3.7c-0.5,-0.5 -0.9,-0.9 -1.4,-1.4c-1.8,-1.9 -1.7,-4.1 -1,-6.3c4.2,-4.8 8.9,-8.4 15.8,-7.4c1.5,3.4 3.4,6.5 3.4,10.3z" id="svg_29"/>
  <path fill="#282127" d="m433.2,372.5c0.6,1.6 1.3,3.3 1.9,4.9c-0.9,3.2 2.9,6.5 -0.2,9.6c-5.5,1.1 -9.6,5.1 -14.7,7.1c-1.5,-0.8 -2.2,-2.2 -2.8,-3.7c-0.5,-1.5 -0.5,-3.1 -0.1,-4.7c1.1,-2.5 2.8,-2.8 5.1,-1.6c2.6,1.5 4.5,0.4 6.2,-1.6c1.9,-3 0.5,-6.8 2.6,-9.7c0.6,-0.7 1.3,-0.8 2,-0.3z" id="svg_30"/>
  <path fill="#FDFDFC" d="m451.9,221c18.8,0.4 18.8,0.4 14.8,-18.4c-0.3,-1.6 -0.2,-3.2 -0.3,-4.8c0.6,1 1.1,2.1 1.7,3.1c1.9,1.1 3.3,2.7 3.1,5.1c0,2.7 0,5.5 0.1,8.2c0.1,10.5 0.1,10.5 10.6,9.2c-0.7,3.6 -4.1,1.7 -5.8,3.1c-1.3,1.1 -3.3,2.2 -1.2,3.5c6.9,4.1 4.2,7.3 -0.6,10.5c-2.2,0.2 -2.6,-1.5 -3.3,-2.9c-0.6,-4.7 -4.1,-4.8 -7.7,-4.8c-3.4,0 -6.9,-0.1 -10.2,1c-1.2,0.3 -2.5,0.5 -3.7,0.6c-2.2,0 -4.4,0 -6.1,-1.8c-0.2,-3.3 7.3,-4 3.6,-7.3c-3.2,-2.9 -6.5,1.5 -9.5,3.7c-2.9,2.2 -1.8,7 -5.8,8.3c-3.2,-8.4 2.8,-11.4 8.4,-14.6l-0.1,0c3.9,-2.4 8.3,0.2 12,-1.7z" id="svg_31"/>
  <path fill="#282127" d="m429.9,240.6c-2,11 -1.9,22.1 -1.9,33.2c0,4.8 -1,6.5 -6.3,6.7c-16.8,0.7 -17,1.4 -10.9,17.7c0.5,0.6 0.8,1.4 0.9,2.2c0,1.2 -0.4,2.3 -1.4,3.2c-3.1,0 -3.3,-2.9 -4.8,-4.6c-0.7,-1 -1.2,-2.1 -1.7,-3.2c-5.4,-10.9 -2.1,-18.3 10.4,-20.3c6.1,-1 7.2,-3.4 7.4,-8.9c0.3,-7.6 2,-15.1 1.9,-22.7c0.1,-1.3 0.5,-2.6 1.4,-3.6c1.8,-1.2 3.5,-1 5,0.3z" id="svg_32"/>
  <path fill="#282127" d="m469.9,272.2c-2,6.9 -8.3,6.2 -13.4,7c-16.8,2.7 -17.4,2.3 -17.9,-14.3c-0.3,-9.5 -2.1,-19.1 1.6,-28.4c4.5,-1.5 8.9,-2 12.8,1.7c1.2,3.8 -2,3.7 -4.1,4.3c-2.4,0.6 -5,0.6 -5,4c-0.2,6.8 0,13.6 -0.1,20.4c-0.1,5.6 2.6,7.6 8,7.7c5.7,0.1 10.5,-2.8 15.8,-3.7c1,0.2 1.8,0.6 2.3,1.3z" id="svg_33"/>
  <path fill="#FBB218" d="m440.2,222.6c-3.9,4.2 -8.7,8 -8.4,14.6c-0.3,0.4 -0.7,0.8 -1.1,1c-1.5,0.5 -3,0.7 -4.6,0.7c-1.6,0 -3.1,-0.1 -4.4,-1.1c-5.2,-7.1 2.5,-6.3 5.2,-8.6c-1.4,-2.1 -2.9,-0.1 -4.3,-0.3c-4.4,0.5 -8.7,1 -12,4.5c-1.5,1.6 -3.9,2.6 -5.9,0.9c-2.4,-2 0.3,-3.9 0.5,-5.9c0.9,-2.5 2.5,-4.2 5,-5.1c1.3,-0.4 2.7,-0.6 4,-0.5c7.3,0.5 11.2,-2.7 10.9,-10.2c3.5,-2.3 6,-1.1 6.3,2.7c0.3,3.9 2.4,5.7 5.4,7.1c1.1,0.1 2.2,0.1 3.4,0.2z" id="svg_34"/>
  <path fill="#282127" d="m426.8,237.4c1.3,0.3 2.6,0.5 3.8,0.8c-0.2,0.8 -0.5,1.6 -0.7,2.4c-1.6,0 -3.2,0 -4.8,0c-0.8,0.8 -1.7,1.5 -2.7,1.9c-5.2,5.7 -12.2,3.2 -18.5,3.8c-5.1,-7.6 -11.3,-4.9 -17.6,-1.9c-0.8,-0.2 -1.4,-0.7 -1.7,-1.5c-0.3,-8.3 7,-8.8 12,-11.6c4.5,0 6.3,4.3 9.7,6c3.4,2 6.9,1.3 10.5,0.4c0.7,-0.2 1.5,-0.3 2.2,-0.3c2.6,0.2 5.2,1.7 7.8,0z" id="svg_35"/>
  <path fill="#FBB218" d="m453.4,238.9c-4.4,-0.8 -8.8,-1.6 -13.2,-2.4c1,-1.3 2.1,-2.6 3.1,-4c2.2,-0.1 4.3,-0.2 6.5,-0.2c5,3.7 10.5,-0.7 14.9,0.9c1.8,-0.2 0.5,-1.9 0.8,-0.9c0.1,0.3 0,0.6 -0.4,0.5c-4.1,-0.2 -8.4,1.9 -12.3,-0.8c4.8,-2.1 9.9,-1.4 15,-1.4c4.5,0 6.1,2.6 5.3,6.8c-4.6,4.7 -10.3,3.6 -15.9,3.4c-1.5,-0.1 -2.8,-0.7 -3.8,-1.9z" id="svg_36"/>
  <path fill="#282127" d="m456.2,239.1c5.6,-0.5 11.3,0.1 16.8,-1.5c0.5,1 0.9,2 1.4,3c0,1.7 -0.1,3.3 -0.1,5c-0.6,0.6 -1.3,1.2 -2,1.7c-6.1,1.3 -12.3,0.3 -18.5,1.4c-3.3,0.6 -6.5,-0.6 -8,-4.1c-0.1,-3.2 2.2,-2.9 4.3,-3.2c2.3,-0.3 5,0.7 6.1,-2.3z" id="svg_37"/>
  <path fill="#FFFFFF" d="m471.3,206c-1.8,-1.2 -2.4,-3.2 -3.1,-5.1c0.7,-0.5 1.4,-0.9 2,-1.4c2,-1.9 0.2,-8 5.4,-6.2c4.7,1.7 2.1,6.7 2.2,10.1c0.2,5.9 -4.4,1.4 -6.5,2.6z" id="svg_38"/>
  <path fill="#FDFDFC" d="m492.8,271.9c0.3,2.1 1.4,4.4 0.7,6.1c-1,2.9 -1.8,6.3 -5.1,7.8c-0.4,0.2 -1.7,-0.5 -1.8,-1c-0.9,-3.5 -0.9,-7 1.5,-9.9c1.2,-1.2 3.1,-2 4.7,-3l0,0z" id="svg_39"/>
  <path fill="#FDFDFC" d="m492.8,179.6c4.8,8.6 -2,14.6 -5,21.4c1.1,-7.2 0,-15 5,-21.4z" id="svg_40"/>
  <path fill="#151420" d="m473,245.6c0.4,0 0.9,0 1.3,0c0.8,9.3 2.5,18.7 -4.4,26.6l-0.3,-0.4c-1.6,-9.1 0.7,-17.7 3.4,-26.2z" id="svg_41"/>
  <path fill="#ECE7E4" d="m410.7,299.6c0.1,-0.5 0.1,-0.9 0.2,-1.4c3.4,-1.2 6.6,-0.4 9.5,1.5c0,0 -0.5,0.6 -0.5,0.6c-2.2,1.8 -4.7,1.7 -7.3,1c-0.9,-0.4 -1.5,-1 -1.9,-1.7z" id="svg_42"/>
  <path fill="#282127" d="m366,349.3c3.2,14.1 6.5,28.3 9.7,42.4c0.2,0.8 -0.2,1.9 0.2,2.4c5.8,7.2 -1,7.7 -5.1,9.6c0.7,-9.9 -2.8,-18.7 -6.6,-27.5c-0.3,-5 -0.5,-10.1 -4.5,-14c-1.2,-3.6 -1.3,-7.1 0.2,-10.7c1.5,-2.1 3.7,-2.5 6.1,-2.2z" id="svg_43"/>
  <path fill="#282127" d="m365.8,375.8c1.8,6.9 8.7,11.9 6.8,20.2c-0.6,2.6 -0.3,5.4 -1.9,7.7c-3.3,-0.1 -3.2,-2.6 -3.3,-4.9c-3.7,-8 -8.7,-15.6 -8.8,-24.9c-1,-4.6 -5.7,-7.5 -6,-12.6c-0.8,-3.8 -0.8,-7.5 0.2,-11.2c0.7,-1.8 1.5,-3.8 3.7,-3.9c2.5,-0.1 2.8,2.1 3.1,4c-1.2,1.7 -1.9,3.5 -2.2,5.4c0.5,-1.3 0.6,-2.9 1.6,-4.3c0.5,-0.7 1.1,-0.8 1.8,-0.3c0,3.8 0.1,7.7 0.1,11.5c4.4,3.4 3.7,8.7 4.9,13.3z" id="svg_44"/>
  <path fill="#282127" d="m360.9,372.5c-1.5,9.7 7.1,16.9 6.6,26.4c-4.6,-2.8 -2.1,4 -5.4,3.6c-4.1,-10.1 -6.7,-20.7 -7.8,-31.7c2.4,-0.4 4.9,-1.1 6.6,1.7z" id="svg_45"/>
  <path fill="#282127" d="m345,351.1c-0.2,-1.6 -0.4,-3.2 -0.7,-4.8c-1.7,-2.3 -1.9,-4.8 -1.1,-7.4c1.3,-1.9 2.3,-1.5 3.6,0.2c0.3,0.4 -1,3 0.8,1.2c5.5,-5.5 6,0.2 7.8,3.2c0.1,2.1 -0.1,4.2 -1.2,6.1c0,4.4 0,8.8 0,13.1c1.2,2.2 1.2,4.4 0,6.6c-3.4,-3.5 -4.3,-7.9 -4.9,-12.5c-0.2,-3 -0.9,-5.4 -4.3,-5.7z" id="svg_46"/>
  <path fill="#282127" d="m354.3,349.4c0,-2.2 0,-4.4 0,-6.6c-0.9,-1 -0.8,-2.2 -0.6,-3.4c4.9,-3.6 2.3,-9.7 4.9,-14.1c1.8,-1.6 2.9,-0.6 3.8,1c-1,8 3.3,15.2 3.5,23c-1.2,2 -3.3,1.7 -5.2,1.8c0,0 -0.8,0 -0.8,0l-0.8,0l0,0c-0.9,-2.4 -1.7,-5.4 -4.8,-1.7z" id="svg_47"/>
  <path stroke="null" style="vector-effect: non-scaling-stroke;" fill="#282127" d="m362.5,326.3c-1.1,-0.6 -2.2,-1.1 -3.2,-1.7c-0.3,-0.3 -0.6,-0.5 -0.8,-0.8c-2.2,-4.2 0.6,-10.7 -7,-13c-2.4,-0.7 1,-6.8 2.1,-10.3c4.2,-5.8 10.4,-5.1 16.4,-4.9c0.9,0.4 1.3,1.1 1.4,2c-0.8,2.6 -2.9,4.1 -4.9,5.7c-5,4.8 -5.1,10.7 -4,16.9c0.3,1.5 1.5,2.9 0.1,4.4c-0.1,0.6 -0.1,1.2 -0.1,1.7z" id="svg_48"/>
  <path fill="#282127" d="m362.5,324.7c-1.7,-5 -2,-10.1 -1.7,-15.3c0.2,-3.5 0.4,-7.4 5.5,-7.4c0.3,0.6 0.5,1.2 0.5,1.9c-0.1,0.7 -0.3,1.3 -0.6,1.9c-0.5,0.9 -1.1,1.7 -1.7,2.6c-1.9,1.8 -0.6,4.4 -1.7,6.4c0.4,3.4 0.7,6.7 1.1,10.1c-0.5,-0.2 -0.9,-0.2 -1.4,-0.2z" id="svg_49"/>
  <path fill="#282127" d="m354.3,369.2c0,-2.2 0,-4.4 0,-6.6c0.1,4.7 7,4.8 6.5,9.9c-2.2,-0.6 -4.4,-1.1 -6.5,-1.7c0,-0.5 0,-1.1 0,-1.6z" id="svg_50"/>
  <path fill="#F6D39D" d="m369.5,164.2c7.9,0.3 10.9,8.2 16,12.8c0.7,0 1.3,0.1 1.9,0.4c0.6,0.3 1,0.8 1.4,1.5c0,0.6 0,1.3 0.1,1.9c-0.9,2.2 -1.3,4.8 -3.6,6c-0.8,0.1 -1.5,0.1 -2.2,-0.1c-5.4,-2 -9.3,-6 -11.1,-12.2c-4.8,3 -3.5,12 -10.7,10.2c-1.5,-2.4 0.5,-3.9 1.2,-5.8c2.3,-5 4.7,-9.8 7,-14.7z" id="svg_51"/>
  <path fill="#E1DCD9" d="m336.4,151.3c1,1.9 1.9,3.7 2.9,5.6c1.7,9.4 6.5,17.9 7,27.6c0.5,0.7 0.7,1.5 0.6,2.4c-4.1,4.8 -8.7,8.2 -15.5,6.3c1.2,-4.1 5.2,-8.5 11,-12c-8,-8.4 -6.5,-19.4 -7.8,-29.6l0.1,-0.2c0.4,-0.6 1,-0.7 1.7,-0.1z" id="svg_52"/>
  <path fill="#F6D39D" d="m345.9,186.3c0.1,-0.6 0.2,-1.2 0.3,-1.8c6.6,2.2 11.4,-1.4 16.3,-4.9c-0.5,1.7 -1,3.3 -1.6,5c-0.2,0.3 -0.4,0.7 -0.6,1c-3.6,2.7 -7.3,4.8 -12,3.3c-1.2,-0.5 -1.7,-1.6 -2.4,-2.6z" id="svg_53"/>
  <path fill="#E1DCD9" d="m336.4,151.3c-0.6,0 -1.2,0.1 -1.8,0.1c-1.4,-3.1 -3.8,-5.8 -3.6,-9.5c3,1.1 2.6,4.9 5,6.4c0.1,1.1 0.3,2.1 0.4,3z" id="svg_54"/>
  <path fill="#F5F3F1" d="m327.9,146.7c-4.4,-0.5 -3,-4 -3.3,-6.6c3.8,0.8 3.1,3.9 3.3,6.6z" id="svg_55"/>
  <path fill="#FBB218" d="m426.7,199.2c2.2,-2.1 2.9,-5.7 6.4,-6.5c9.1,-0.6 10.8,-9.8 16.5,-14.3c2,-1.6 3.2,-4.3 5,-6.8c3.8,4 4.6,9 4.7,13.2c0.4,9.7 1.7,19 4.8,28.1c1.1,3.4 -0.7,4.2 -3.3,5.2c-5.1,2 -10.3,0.8 -15.5,1.1c-3.2,0.2 -6.8,-0.5 -8.6,3.3c-4.9,2.1 -8,0.7 -7.1,-4.9c0.7,-4.4 -0.9,-5.3 -4.6,-4.8c-0.4,0.1 -0.8,0.1 -1.2,0.2c-1.4,0.2 -2.7,0.2 -4.1,0c-2.6,-0.3 -6.1,0.1 -6.6,-3.3c-0.5,-4.1 3.2,-4.9 6,-5c4.1,-0.2 5.3,-3.4 7.6,-5.5z" id="svg_56"/>
  <path fill="#E2B92B" d="m451.9,221c-3.8,2 -8,0.9 -11.9,1.7c3.6,-3.5 8,-1.3 11.9,-1.7z" id="svg_57"/>
  <path fill="#FBB218" d="m426.9,118.7c-0.4,-0.3 -0.8,-0.6 -1.2,-0.9c-0.7,0.6 -1.5,1.3 -2.2,1.8c-5.6,3.8 -11.2,7.9 -18.5,3.9c-2.7,1.1 -5.5,2.2 -8.2,3.3c-7.2,0.9 -14.9,1.1 -14.6,11.5c0.8,11.1 -1.5,22.5 3.6,33.1l0,0c1.9,2.5 -0.2,5.7 1.5,8.2c0.5,0.1 1.1,0.1 1.6,0.1c4.8,-2.3 5.9,-5.6 2.4,-9.7c-2.4,-2.8 -2.3,-6 -2.4,-9.3c-0.3,-7.1 0.9,-14.2 -1.4,-21.2c-1.4,-4.3 1.4,-6.5 5.3,-7.6c9.8,-2.7 20,-3.3 29.8,-7.2c3.7,-1.5 5.9,-3 6.9,-5.2c-0.9,-0.1 -1.8,-0.4 -2.6,-0.8z" id="svg_58"/>
  <path fill="#282127" d="m425.2,349.5c4.1,6 3.2,14.1 8.1,19.7c0,1.1 -0.1,2.2 -0.1,3.2c-0.4,0 -0.9,0 -1.3,0c-2.8,0.9 -3.4,-1.5 -4.5,-3.1c-1.1,-3 -2.4,-6 -3.6,-9c-0.7,-2.5 -0.8,-5 -0.5,-7.5c0.3,-1.3 0.8,-2.5 1.9,-3.3z" id="svg_59"/>
  <path fill="#282127" d="m410,349.9c-1.6,-3.9 -2.6,-7.9 -2.8,-12.1c-0.7,-4.8 2.9,-8.2 3.9,-12.5c0.3,-1.8 4.1,0.4 3.1,-2.8c0.3,-0.7 0.7,-1.2 1.3,-1.6c0.8,-0.1 1.5,0 2.1,0.3c2.9,1.7 1.1,5 2.5,7.2c1.7,7.1 3.4,14.1 5.1,21.2c0,1.1 -0.1,2.1 -0.1,3.2c-5.2,2 -2.8,5.9 -2.2,9.2c0.1,0.7 1.5,-0.7 2.4,-1.1c2.4,2.2 3.3,5 3.3,8.2c0.4,5 0.1,10.1 1.6,15c-3.2,5.2 -7.8,1.2 -11.7,2c-1.1,-1 -1.4,-2.3 -1.2,-3.8c0.9,-7.3 -1.4,-14.1 -2.7,-21.1c-0.7,-4.2 -3.9,-7.7 -3.3,-12.3c0,-0.3 -0.4,1.1 -1.3,1z" id="svg_60"/>
  <path fill="#282127" d="m430.2,384.1c-6.3,-4.4 -3.4,-9.7 -1.6,-15c1.1,1.1 2.2,2.3 3.4,3.4c-0.9,3.8 1.2,8.1 -1.8,11.6z" id="svg_61"/>
  <path fill="#FBB218" d="m452.8,232.1c5,0 10.1,0 15.1,0c-4.7,2.3 -9.6,1.7 -14.3,3.3c-2.1,0.7 -3.6,-0.7 -3.8,-3.1c1.1,0 2,-0.1 3,-0.2z" id="svg_62"/>
  <path fill="#282127" d="m403.8,245.5c3.6,-0.5 7.1,-2.8 11,-1c4.1,2 2.9,-5.9 7.1,-3.8c0.9,1.3 2.3,2 3.3,3.1c1.6,9.8 -2.4,19.3 -1.7,29.1c0.3,3.4 -2.3,4 -5,3.8c-4,-0.3 -7.7,0.9 -10.8,3.1c-4.3,3 -8.5,6.3 -2.7,11.9c0.9,0.9 0.4,3.1 0.5,4.8c-1.3,2.1 -2.9,2.4 -4.5,0.4c-1.7,-2.2 -3,-4.7 -3.4,-7.3c-2,-13.1 -7.7,-25.3 -7.9,-38.7c4,-3.4 8.4,-6 14.1,-5.4z" id="svg_63"/>
  <path fill="#282127" d="m390.6,250.5c2.6,15.5 6.3,30.7 11.5,45.5c0.7,2 2.1,0.9 3.3,0.7c0.5,0.5 1.1,1 1.6,1.5c0.6,4.6 2.6,9.3 -0.1,13.9c-2.1,3.9 3.5,9.6 -2.9,12.5c-6.1,-24.9 -12.3,-49.8 -17.1,-75c-0.8,-2.3 0.7,-3.1 2.4,-2.7c1.9,0.3 2.3,1.9 1.3,3.6z" id="svg_64"/>
  <path fill="#282127" d="m405.3,311.5c3,-4.1 0.2,-9 1.8,-13.3c1.1,1.7 2.1,3.5 3.2,5.2c2.6,3.7 5.3,7.5 1.6,12.1c-3.7,1.2 -7.1,1.8 -6.6,-4z" id="svg_65"/>
  <path fill="#282127" d="m412,314.8c0.9,-4 -1.9,-7.5 -1.8,-11.4c0.1,-1.3 0.3,-2.5 0.4,-3.8c0.5,0.4 1,0.8 1.4,1.2c-0.3,1.6 -0.1,3.2 1.2,4.4c2.9,2 2,5.2 2.3,7.9c0.5,2.7 1,5.5 1.5,8.2c-0.6,0 -1.1,-0.1 -1.7,-0.1c-2.9,-1.2 -4.4,-3.1 -3.3,-6.4z" id="svg_66"/>
  <path fill="#282127" d="m425.2,243.9c-1.8,-0.3 -5.1,1 -3.3,-3.1c1.1,0 2.2,-0.1 3.3,-0.2c0,1.1 0,2.2 0,3.3z" id="svg_67"/>
  <path fill="#282127" d="m473,245.6c0.9,9 -1.2,17.6 -3.4,26.3c-6.4,3 -12.8,5.6 -20.2,5.2c-5.5,-0.3 -8,-1.9 -7.8,-7.7c0.3,-7.9 0.1,-15.9 0.1,-23.8c1.4,-1.3 2.7,-2.9 4.9,-1.6c1.6,2 4.1,3.8 6.3,3c6.7,-2.3 13.5,-0.6 20.1,-1.4z" id="svg_68"/>
  <path fill="#282127" d="m446.6,243.9c-1.6,0.5 -3.3,1.1 -4.9,1.6c-0.3,-3.2 0.7,-5.1 4.3,-4.9c2.6,0.1 5.4,0.7 7.4,-1.7c0.9,0 1.9,0.1 2.8,0.1c-0.5,1.1 4.7,2.1 0.1,3.2c-3.1,0.8 -6.9,-1.4 -9.7,1.7z" id="svg_69"/>
  <path fill="#FBB218" d="m418.1,238.7l-0.6,-0.1l-0.5,0.4c-3.8,1.4 -7.7,1 -11.5,0.2c-2.7,-2.3 -5.5,-4.6 -8.2,-6.9c-1,-1 -1,-2.1 -0.4,-3.3c1.6,-1.5 3.5,-1.5 5.5,-1.1c1.3,1.6 3.1,0.6 4.6,0.9c-0.4,1.7 -0.8,3.3 -1.2,5c5.1,-4.8 10.7,-7.8 17.9,-6.2c2.3,0.1 4.5,0.5 6.6,1.7c-0.3,3.6 -3,3.4 -5.4,3.2c-4.3,-0.3 -3.2,2.3 -2.8,4.7c-1,1.4 -2.8,0.8 -4,1.5z" id="svg_70"/>
  <path fill="#FBB218" d="m430.1,229.1c-2.7,1.4 -4.8,0.7 -6.6,-1.7c2.9,-2.2 5.5,-3.1 6.6,1.7z" id="svg_71"/>
  <path fill="#FBB218" d="m418.1,238.7c1.3,-0.6 2.6,-1.2 3.9,-1.8c1.6,0.2 3.3,0.3 4.9,0.5c-2.7,2.6 -5.9,1.4 -8.8,1.3z" id="svg_72"/>
  <path fill="#282127" d="m390.6,250.5c-0.5,-2.7 -1.4,-4.1 -3.6,-1c-1.7,-1.5 -1.4,-3.6 -1.4,-5.5c1.2,-0.6 2.4,-1.1 3.5,-1.9c8.9,-5.8 8.9,-5.8 14.7,3.5c-4.4,1.7 -8.1,5.2 -13.2,4.9z" id="svg_73"/>
  <path fill="#FBB218" d="m405.4,239.1c3.8,-0.1 7.7,-0.1 11.5,-0.2c-3.7,2.7 -7.6,2.5 -11.5,0.2z" id="svg_74"/>
  <path fill="#282127" d="m365.8,375.8c-1.6,-4.4 -3.3,-8.8 -4.9,-13.2c7.2,2.3 4.4,8.4 4.9,13.2z" id="svg_75"/>
  <path fill="#282127" d="m359.2,351c0,3.4 0,6.8 0,10.1c-0.8,-0.1 -1.6,-0.1 -2.4,-0.2c-0.8,-3.3 -2.5,-6.9 2.4,-9.9c0,0 0,0 0,0z" id="svg_76"/>
  <path fill="#282127" d="m343.2,345.7c-3.9,-19.6 -8.1,-39.2 -10.4,-59.1c0.4,-2.6 1,-5 3,-6.9c0.9,0.5 1.5,1.2 1.9,2.1c1.3,5.9 0.8,12.1 2.3,18c1,10.2 1.5,20.5 4.9,30.4c0.9,2.5 1.8,5.2 -0.3,7.7c-0.1,2.8 -0.1,5.6 -0.2,8.4c-0.4,-0.2 -0.8,-0.4 -1.2,-0.6z" id="svg_77"/>
  <path fill="#282127" d="m344.5,337.9c-3.9,-12.4 -6.6,-24.9 -6.7,-37.9c2.8,-0.6 3.5,1.7 4.6,3.4c3.7,6.8 2.9,14.9 6.1,21.8c-0.2,5.6 6,0.9 7.2,4.3c1,3.5 1.2,6.9 -1.4,10c0,1.1 0,2.2 0,3.3c-2,-0.6 -2.9,-7.6 -6.3,-1c-0.7,1.3 -1.2,1 -3.5,-3.9z" id="svg_78"/>
  <path fill="#282127" d="m354.3,339.5c0,-3.9 0,-7.7 -0.1,-11.6c-2,-0.8 -3.1,-2.4 -2.9,-4.5c0.3,-3.3 -0.1,-8.3 4.2,-8.3c4,-0.1 2.5,4.6 2.8,7.3c0.1,0.8 0.4,1.6 0.8,2.2l0,0c-1.5,5 4.2,12.4 -4.8,14.9z" id="svg_79"/>
  <path fill="#282127" d="m370.8,296.7c-5.5,1.8 -12.1,-0.3 -16.5,5c-2.1,-2.6 -6.4,-1.6 -8.1,-4.9c-0.1,-9.7 -3.7,-19.7 1.5,-29.1c3.2,-3.2 6.6,-6.1 10.9,-7.7c2,0.6 3.4,2.1 4.2,4c-0.5,3.4 -4,3.7 -5.9,5.9c2.6,0 4.4,-3.3 7.2,-1.5c2.7,9.4 5.1,18.8 8.6,28c-0.4,0.6 -1.1,0.7 -1.9,0.3z" id="svg_80"/>
  <path fill="#282127" d="m347.7,298.3c3.9,-2.1 6.8,-2.5 6.7,3.4c0.3,3.1 -1.4,5.7 -2.5,8.5c12.1,0.1 5.7,9.3 7.3,14.5c-3.2,-2 0,-6.7 -4.2,-8.9c-0.9,4.2 -3.7,7.8 -0.8,12.1c-2.2,1.2 -0.9,4 -2.5,5.6c-2.8,-1.6 -3.5,-4.4 -4,-7.2c-0.5,-0.7 -0.8,-1.5 -0.7,-2.3c0.3,-4.6 0.5,-9.3 -1,-13.8c-0.4,-4.1 -1.5,-8.3 1.7,-11.9z" id="svg_81"/>
  <path fill="#282127" d="m370.8,296.7c0.5,0 1.1,0 1.6,-0.1c0.8,-0.2 1.8,-0.3 2.2,0.4c7.3,11.9 15.3,23.5 17,37.9c-0.3,0.8 -0.8,1.4 -1.6,1.8c-5.8,-11.7 -11.7,-23.5 -17.5,-35.2c-1.3,-0.6 -1.8,-1.7 -1.8,-3.1c0.1,-0.6 0.1,-1.2 0.1,-1.7z" id="svg_82"/>
  <path fill="#FBD869" d="m385.7,171.3c2.5,2.4 1.3,5.4 1.5,8.2c-0.5,-0.5 -1.1,-1.1 -1.6,-1.6c0,-2.2 0,-4.4 0.1,-6.6z" id="svg_83"/>
  <path fill="#F6D39D" d="m351.1,191.1c-1.1,-1.1 -2.2,-2.2 -3.2,-3.3c4.9,1.2 8.6,-2.7 13.1,-3.2c-2.5,3.4 -5.9,5.5 -9.9,6.5z" id="svg_84"/>
  <path fill="#282127" d="m339.2,273.6c0.5,-0.7 1,-1.4 1.5,-2c2.3,-3 4,-6.8 8.7,-6.5c0.6,0.7 0.5,1.3 0,2c-3.9,10.2 -0.7,20.8 -1.7,31.2c0,4.4 0,8.8 0,13.2c1.3,4.4 1.2,8.8 0,13.2c0,0.5 0,1.1 0,1.6c-5.4,-6.8 -3.7,-15.6 -6.6,-23.1c-0.5,-8.2 2,-16.1 1.9,-22c-2.4,5.1 -3.2,5.4 -6.8,0.6c-0.1,-0.7 -0.3,-1.3 -0.4,-2c-0.6,-3 3.1,-3.6 3.4,-6.2z" id="svg_85"/>
  <path fill="#282127" d="m425.3,360.8c-0.7,2 1.3,5.7 -2.3,5.7c-3,0 -2.6,-3.4 -2.8,-5.8c-0.2,-2.1 -0.5,-4.2 -0.7,-6.4c-0.1,-1.7 0.2,-3.4 1.8,-4.1c2,-0.8 2.3,1.9 3.7,2.4c0.1,2.8 0.2,5.5 0.3,8.2z" id="svg_86"/>
  <path fill="#282127" d="m349.4,267.1c0,-0.6 -0.1,-1.2 -0.1,-1.8c-0.3,-5.3 5,-5.9 7.5,-8.9c1.2,-0.8 2.5,-1.6 3.6,-2.5c4.2,-3.2 8.4,-6.3 12.7,-9.3c0.8,-0.2 1.5,-0.3 2.3,-0.2c0.8,0.2 1.4,0.6 1.9,1.2c5.4,22 10.8,43.9 16.1,65.9c-1.4,1.4 1,4.7 -2.4,5.1c-5.8,-8.3 -5.9,-18.3 -8.6,-27.6c-2.7,-9.4 -4.9,-18.9 -6.6,-28.5c-0.9,-4.2 -2.3,-6.8 -7.1,-3.4c-2.8,2 -5.6,4.6 -9.6,3.2c-2.8,2.8 -5.4,6 -9.7,6.8z" id="svg_87"/>
  <path fill="#282127" d="m412,314.8c1.1,2.2 2.2,4.3 3.3,6.5c0,0 -0.1,0.2 -0.1,0.2c-1.1,1 -2,2.2 -3.2,3.2c1.1,5.4 -3.9,8.6 -4.8,13.2c-1.1,-4.4 -2.1,-8.9 -3.2,-13.3c4.4,-4 -2.5,-9 1.3,-13c0.7,4.1 4,3 6.7,3.2z" id="svg_88"/>
  <path fill="#282127" d="m410,349.9c0.4,-0.8 1.1,-2.7 1.4,-2c5.1,10.3 7,21.4 8.2,32.7c0.1,1.2 -1.3,1.5 -2.4,1.7c-2.4,-10.8 -4.8,-21.6 -7.2,-32.4z" id="svg_89"/>
  <path fill="#282127" d="m406.7,364.4c-7.7,-5.1 -9.1,-13.9 -13,-21.3c-0.4,-0.6 -0.5,-1.3 -0.2,-2c2,-1 3.3,0.6 4.7,1.4c0.8,0.4 1.6,0.1 2.4,-0.1c3.4,7 4.5,14.5 6.1,22z" id="svg_90"/>
  <path fill="#282127" d="m400.7,342.4c-0.2,1.4 -0.4,2.9 -1.9,3.7c-2.5,-7.5 -7.1,-14.2 -7.4,-22.4c-0.1,-2.4 -1,-4.9 0.7,-7.1c0.1,-1.8 -0.3,-3.6 1.4,-5c2.3,10.2 6.2,20.2 7.2,30.8z" id="svg_91"/>
  <path fill="#282127" d="m412,324.6c0,-2.1 1,-3.3 3.2,-3.2c0,2.2 0,4.4 0,7.3c-1.3,-1.7 -2.3,-2.9 -3.2,-4.1z" id="svg_92"/>
  <path fill="#282127" d="m401.9,279c7.6,-9 4.2,-19.3 5.3,-28.9c0.5,-4 4.1,-2.7 6.6,-2.9c2.9,-0.2 4.7,1 4.7,4.2c-0.1,5.2 0.2,10.3 1.5,15.4c0.9,3.6 -0.9,5.7 -5,6.9c-4.1,1.4 -10.2,-1.3 -13.1,5.3z" id="svg_93"/>
  <path fill="#282127" d="m421.4,247.3c0,3.2 0,6.5 0,9.7c-0.3,0 -0.5,0 -0.8,0c0,-3.2 0,-6.5 0,-9.7c0.3,0 0.6,0 0.8,0z" id="svg_94"/>
  <path fill="#282127" d="m393.9,341c-0.1,0.7 -0.2,1.4 -0.3,2.1c-1.2,-2.1 -2.4,-4.3 -3.6,-6.4c0.2,-0.2 0.4,-0.5 0.7,-0.7c3.4,0.3 4.8,1.7 3.2,5z" id="svg_95"/>
  <path fill="#282127" d="m336.2,281.8c7.5,6.4 3.3,-6.1 8.2,-4.5c0,8.6 1.4,17.5 -3.3,25.9c-1.1,-1.1 -2.2,-2.2 -3.2,-3.2c-2.2,-6 -1.8,-12.1 -1.7,-18.2z" id="svg_96"/>
  <path fill="#282127" d="m393.9,341c-0.1,-2.3 -1.3,-3.8 -3.2,-5c-3.4,-14.4 -10.8,-27 -18.3,-39.4c-5.6,-8.5 -8.9,-17.6 -8.2,-28c2.7,-4.1 7.4,-6.2 9.9,-10.5c1.2,-0.4 2.3,-0.4 3.2,0.6c3.3,13.4 6.5,26.8 9.9,40.2c1.5,5.9 3.3,11.7 4.9,17.6c0.7,10.2 6.1,19.3 6.6,29.6c-1.5,-1.7 -3.2,-3.4 -4.8,-5.1z" id="svg_97"/>
  <path fill="#282127" d="m374,258.8c0.1,6.7 -5.4,7.7 -9.8,9.9c-4,1.2 -7.2,5.5 -13.1,2.6c4.3,-2.8 7.9,-5.2 11.5,-7.6c2,-5.9 5.4,-8.4 11.4,-4.9z" id="svg_98"/>
  <path fill="#282127" d="m374,258.8c-5,-1 -8.6,1.1 -11.5,4.9c-2.2,0 -3.3,-1.1 -3.3,-3.3c3.1,-1.7 6.6,-3 9.2,-5.3c6,-5.4 7.8,-2 8.9,3.7c-1.1,-0.1 -2.2,0 -3.3,0z" id="svg_99"/>
  <path fill="#282127" d="m347.8,324.7c0,-4.4 0,-8.8 0,-13.2c2.4,4.4 2.4,8.8 0,13.2z" id="svg_100"/>
  <path fill="#E1BC92" d="m323.1,207.4c7.6,-8.8 15.2,-3.7 22.9,0c-7.7,0 -15.3,0 -22.9,0z" id="svg_101"/>
  <path fill="#FFFFFF" d="m393.4,86.9" id="svg_102"/>
  <path fill="#E9E6EB" d="m502.5,190c0,0 18.5,-56.7 4.9,-63.1c-7.4,-3.5 -18.5,-6.9 -27.1,-9.2c-5.1,2.3 -10.5,-0.7 -15.9,-1.2c-0.4,0.4 -0.9,0.7 -1.6,0.9c-0.6,0.1 -1.3,0.3 -1.9,0.4c-0.5,0.4 -1.2,0.7 -2,0.7c6.7,1 31.3,5.1 37.9,11.2c7.6,7.1 -4.1,55.4 -4.1,55.4s-10.7,16.9 -7.7,48.7c3,31.8 6.1,39 6.1,39l10.1,4.2c0,0 4.8,-17.4 -1.5,-24.9c-6.1,-7.4 2.8,-62.1 2.8,-62.1z" id="svg_103"/>
  <path fill="#FDFDFC" d="m407.7,288.8l4.4,12c0,0 71.6,6.2 83.8,-13s-23.7,-7.2 -23.7,-7.2l-51.9,5.4l-12.6,2.8z" id="svg_104"/>
  <path fill="#FDFDFC" d="m471.4,233.3c0,0 17.4,51.5 -29.2,46.4c-46.6,-5.1 29.9,13.6 29.9,13.6l9.9,-30.2l-3.7,-28.2l-6.9,-1.6z" id="svg_105"/>
  <path fill="#E9E6EB" d="m461.9,300.3c0,0 29.3,4.1 29.2,-27.4c-0.1,-31.5 10.9,0.7 10.9,0.7s-1.9,24.2 -12.1,25.2c-10.2,1 -28,1.5 -28,1.5z" id="svg_106"/>
  <path fill="#E9E6EB" d="m487.8,201.1c0,0 4.3,-30 7.3,-36.6c2.9,-6.6 -1.4,30.1 -1.4,30.1l-6.9,6.6l1,-0.1z" id="svg_107"/>
  <polygon fill="#E9E6EB" points="436,310 436,418 440.5,417.79998779296875 440.5,310 " id="svg_108"/>
  <path fill="#261F14" d="m364.6,408.4c0,0 -42.6,6.9 -28.3,11.4s39.1,1.3 39.1,1.3l3.4,-1.1c0,0 3,-4.9 0,-6.9s-14.2,-4.7 -14.2,-4.7z" id="svg_109"/>
  <path fill="#282127" d="m340.7,333.5c0,0 4.1,28.1 5.1,30.5c1,2.4 13.1,-9.1 13.1,-9.1l-18.2,-21.4z" id="svg_110"/>
  <path fill="#282127" d="m332.7,286.6c0,0 -6.3,-16.3 59,-52.8" id="svg_111"/>
  <polygon fill="#AEB8BE" points="371.0999755859375,225.39999389648438 420.79998779296875,413.9000244140625 427.20001220703125,413.9000244140625 380.20001220703125,220.89999389648438 367.9000244140625,219.39999389648438 " id="svg_112"/>
  <path fill="#AEB8BE" d="m445.8,425.5l-33.4,0c-4.1,0 -7.5,-3.4 -7.5,-7.5l0,0c0,-4.1 3.4,-7.5 7.5,-7.5l33.4,0c4.1,0 7.5,3.4 7.5,7.5l0,0c0,4.2 -3.4,7.5 -7.5,7.5z" id="svg_113"/>
  <path fill="#282127" d="m370.4,299.6c0,0 -7.6,6.6 1,53c0,0 12.6,46.9 11.9,49.5c-0.7,2.6 -9.3,3.4 -9.3,3.4l-17.3,-92.1l13.7,-13.8z" id="svg_114"/>
  <path fill="#282127" d="m410.8,298.2c0,0 23.6,68.9 25.2,84.7c1.6,15.8 -24,-49.4 -24,-49.4l-6.5,-34.6l5.3,-0.7z" id="svg_115"/>
  <path fill="#AEB8BE" d="m262.6,425.5l-33.4,0c-4.1,0 -7.5,-3.4 -7.5,-7.5l0,0c0,-4.1 3.4,-7.5 7.5,-7.5l33.4,0c4.1,0 7.5,3.4 7.5,7.5l0,0c0,4.2 -3.3,7.5 -7.5,7.5z" id="svg_116"/>
  <path fill="#F5CFB0" d="m421.6,107.3" id="svg_117"/>
  <polygon fill="#F6D39D" points="385.5,186 355,202.5 346.9000244140625,199.70001220703125 349.29998779296875,185.60000610351562 361.4000244140625,183.20001220703125 369.20001220703125,173.79998779296875 373.5,175.39999389648438 " id="svg_118"/>
  <polygon fill="#F6D39D" points="357.9000244140625,207.60000610351562 351.20001220703125,205 355.9000244140625,199.70001220703125 357.70001220703125,202.5 " id="svg_119"/>
  <path fill="#85705B" d="m417.9,84.2c-0.5,1 -1,2 -1.5,3c-1.5,0.1 -3,0.3 -4.5,0.4c-2.6,-0.3 -4.7,-0.3 -5,3.2c-0.4,3.8 -3.3,4.8 -6.5,4.8c-3.1,0.1 -6,-0.5 -7.3,-4c-0.4,-1.1 -0.9,-2.2 -1.7,-4c-1.7,2.9 -3.1,5.1 -4.4,7.4c-2.4,0.1 -4.8,0.3 -7.1,0.4c-2.2,-1.1 -5.7,-8.5 -4.6,-10.4c0.6,-1 2.4,-1.4 3.6,-2c1.2,-0.1 2.4,-0.3 3.6,-0.4c4.4,0.6 8.7,3.1 13.1,0.5c3.1,-0.1 6.3,-0.1 9.4,-0.2c2.3,0.3 4.6,0.6 6.9,0.8c2.1,0.3 4,0.4 6,0.5z" id="svg_120"/>
  <g id="svg_121">
   <path fill="#FFFFFF" d="m394.4,87.7c0,0 8.4,-3.5 9.9,-0.9c1.6,2.6 -1.3,6.4 -1.3,6.4s-5.2,1 -6.1,-0.6s-2.5,-4.9 -2.5,-4.9z" id="svg_122"/>
   <g id="svg_123">
    <path fill="#FFFFFF" d="m394.9,88.2c1.9,-0.8 4,-1.5 6.1,-1.6c3.8,-0.2 1.9,4.9 0.6,6.7c0.5,-0.2 1,-0.5 1.6,-0.7c-1.3,0.2 -3.4,0.6 -4.6,-0.1c-0.8,-0.5 -1.3,-2.3 -1.7,-3.1c-0.4,-0.7 -0.7,-1.4 -1.1,-2.1c-0.5,-0.9 -3.3,0.1 -2.9,0.8c0.7,1.4 1.5,2.8 2.2,4.2c0.8,1.5 1.9,1.9 3.6,2c1.4,0.1 2.7,-0.1 4.1,-0.3c1.4,-0.2 1.9,-1.1 2.5,-2.2c0.9,-1.6 1.4,-3.6 0.5,-5.3c-0.6,-1.2 -2.3,-1.3 -3.5,-1.3c-2.8,0 -5.8,1 -8.4,2.1c-2,0.7 -0.2,1.4 1,0.9z" id="svg_124"/>
   </g>
  </g>
  <g id="svg_125">
   <path fill="#FFFFFF" d="m387,87.1c0,0 -6.4,-2.4 -7.4,-0.2c-1,2.1 1.3,5.1 1.3,5.1s4,0.5 4.5,-0.8c0.5,-1.4 1.6,-4.1 1.6,-4.1z" id="svg_126"/>
   <g id="svg_127">
    <path fill="#FFFFFF" d="m387.4,85.6c-1.9,-0.7 -4.1,-1.3 -6.2,-1.1c-3.7,0.2 -3.9,3.9 -2.6,6.6c0.4,1 1.1,2.2 2.3,2.3c1,0.1 1.9,0.1 2.9,0c1.5,-0.2 2.6,-0.8 3.1,-2.2c0.5,-1.3 1,-2.5 1.5,-3.8c0.7,-1.8 -2.2,-2.6 -2.9,-0.8c-0.2,0.6 -0.5,1.1 -0.7,1.7c-0.2,0.5 -0.4,1 -0.6,1.4c-0.1,0.2 -0.2,0.4 -0.3,0.6c0.2,-0.2 0.2,-0.2 0.1,-0.1c-1,0.4 -2.3,0.2 -3.3,0.1c0.4,0.1 0.7,0.3 1.1,0.4c0.4,0.5 -0.2,-0.3 -0.3,-0.5c-0.4,-0.6 -0.6,-1.2 -0.8,-1.8c-0.3,-1.2 0.2,-1.2 1.2,-1.2c1.5,0 3.1,0.5 4.6,1.1c2,0.9 2.7,-2 0.9,-2.7z" id="svg_128"/>
   </g>
  </g>
  <path fill="#FBB218" d="m396.6,231.4c0,0 -5,-3.1 22.2,-14.6l6.3,-5.6l4.4,9.5l-18.5,6.3l-14.4,4.4z" id="svg_129"/>
  <polygon fill="#FBB218" points="385.29998779296875,164.70001220703125 396.5999755859375,231.39999389648438 419.29998779296875,225.20001220703125 440.9000244140625,205 444.29998779296875,192.89999389648438 449.79998779296875,176.60000610351562 396.29998779296875,166.39999389648438 " id="svg_130"/>
  <path fill="#F6D39D" d="m355.9,199.7c0,0 16.9,-6.8 42,-11.5l10.8,-6l6.4,-2l19.2,-32.8l20.6,19.4l-23.6,29.2c0,0 -10.2,7.3 -18.6,8.2c-8.4,0.9 -33.8,2.8 -33.8,2.8l-13.2,1.6l-7.9,-1l-1.9,-7.9z" id="svg_131"/>
  <path fill="#E1BC92" d="m351.1,191.1c0,1.7 0,3.3 -0.1,5c-0.6,0.6 -1.3,1.1 -2.2,1.3c-10.8,-1.7 -20,2.4 -28.6,8.3c-2.2,1.5 -4.4,3.1 -7.1,3.7c-6.7,1.1 -13.4,0.6 -20.1,0.5c-5.4,-0.1 -9.4,-2.1 -10.3,-8.1c0.6,-7.3 2.4,-8.9 9.8,-7.2c9.9,2.3 19.4,1.2 29,-1.4c2.1,-0.6 4.2,-1.6 6.5,-0.4c1.1,-0.1 2.2,-0.1 3.3,-0.2c5.8,0 10.4,-2.9 14.7,-6.3c0.6,0.5 1.3,1 1.9,1.5c0.6,1.5 4.1,0.2 3.2,3.3z" id="svg_132"/>
  <path fill="#E1DCD9" d="m327.9,192.8c-1.6,0.6 -3.2,1.2 -4.8,1.8c-3.6,1.1 -7.5,1.3 -11.2,2c-1.9,0.4 -4.1,0.6 -7,-2.5c-7.8,-8.3 -18.6,-13.4 -29.2,-18.2c-0.1,0 -0.4,0.3 -0.6,0.5c-2.9,-4.5 -4.4,-9.5 -5,-14.8c4.8,-4.6 10.1,-1 13.4,1c10.9,6.5 20.9,14.4 31.4,21.6c9.3,6.3 11.2,5.7 15.4,-4.3c0.5,-1.2 1,-2.8 2.6,-2.8c2,0 3,1.6 2.9,3.3c0,2.2 2.3,4.6 -1,6.5c-2.5,1.5 -6.5,1.7 -6.9,5.9z" id="svg_133"/>
  <path fill="#E1DCD9" d="m275.2,176.3c0.3,-1.8 -0.7,-3.8 0.6,-5c9.9,9.8 24.4,12.5 32.7,23c0.3,-0.1 -0.8,0.4 -3.1,1.3c6.7,1 12.1,-2.6 17.7,-1.1c-10.1,3.5 -20.2,5.7 -30.9,2.1c-3.6,-1.2 -8.6,-2.5 -8.8,4.4c-0.5,0 -1,0 -1.6,0c0.7,-9 -5.4,-16.2 -6.6,-24.7z" id="svg_134"/>
  <path fill="#91A1AA" d="m372.5,225.6l-82.9,0c-0.6,0 -1.1,-0.5 -1.1,-1.1l0,-1.7c0,-0.6 0.5,-1.1 1.1,-1.1l82.9,0c0.6,0 1.1,0.5 1.1,1.1l0,1.7c-0.1,0.6 -0.5,1.1 -1.1,1.1z" id="svg_135"/>
  <polygon fill="#AEB8BE" points="296.70001220703125,226.79998779296875 247,415.29998779296875 240.60000610351562,415.29998779296875 287.5999755859375,222.29998779296875 299.79998779296875,220.79998779296875 " id="svg_136"/>
  <path fill="#E1DCD9" d="m283.2,204.8l-18.3,-52.9c0,0 -1.5,-4 3.9,-5.4c5.4,-1.5 58,-13.8 58,-13.8s2.1,-5.2 6.9,6.7c4.9,11.9 23.9,71.3 23.9,71.3l-71.3,0.4l-3.1,-6.3z" id="svg_137"/>
  <path fill="#CECBC8" d="m391.7,212.2l-103.4,0c-1.1,0 -1.9,-0.9 -1.9,-1.9l0,0c0,-1.1 0.9,-1.9 1.9,-1.9l103.4,0c1.1,0 1.9,0.9 1.9,1.9l0,0c0,1.1 -0.9,1.9 -1.9,1.9z" id="svg_138"/>
  <path fill="#AEB8BE" d="m420.7,221.9l-178.7,0c-2.9,0 -5.2,-2.3 -5.2,-5.2l0,0c0,-2.9 2.3,-5.2 5.2,-5.2l178.7,0c2.9,0 5.2,2.3 5.2,5.2l0,0c-0.1,2.9 -2.4,5.2 -5.2,5.2z" id="svg_139"/>
  <ellipse fill="none" stroke="#F9DA75" stroke-width="2" stroke-miterlimit="10" cx="408.6" cy="119.7" rx="16.7" ry="7.1" id="svg_140"/>
  <path fill="#F5CFB0" d="m407.3,125.7l8.9,0l7.4,-2.9l2.2,-5.1c0,0 -5.5,-13.7 0,-17.7s-5.1,-6.2 -5.1,-6.2l-9.5,16l-3.9,15.9z" id="svg_141"/>
  <path fill="#FBDA72" d="m388.8,184.5c-8.9,-62.8 1.3,-55 1.3,-55l-6.1,-2.9c-11.2,5.3 -14.9,38.2 -14.9,38.2l19.7,19.7z" id="svg_142"/>
  <path fill="#282127" d="m426.7,103.8c0.1,0 0.1,0 0,0c0.5,-0.3 0.9,-0.6 1.3,-0.8c0,-0.2 0.1,-0.3 0.1,-0.3l1.7,-2.8c0,0 -3.5,-6.5 3.1,-9.1c0,0 -1.8,-4.6 1.3,-15.1c3.1,-10.5 -10,-13.6 -10,-13.6s-3.6,-3.5 3,-7.9c6.7,-4.4 -10.2,-9.8 -19.2,-4.4c-9,5.4 -17.2,-1.1 -17.2,-1.1s-4.9,-2.1 -8.1,4c-3.1,6.1 -2.3,8.1 -10.4,9.9c-8.1,1.9 0.9,10.1 4,10.1c3.1,0 6.2,4.3 6.2,4.3s14.2,-3 20.5,0c6.3,3 10.6,3.9 10,8.8c-0.6,4.9 -0.5,16.9 -15.9,15.4c-15.3,-1.5 -11.9,5 -11.9,5s-10.4,15.2 -0.9,20.9c9.5,5.7 17.8,3 21.8,1.4s8.5,-7.5 10.5,-16c1.9,-8.5 -1.6,-18.4 -0.4,-20.6c1.2,-2.2 2.4,-10.9 5.8,-3.2c3.4,7.7 1.2,12.3 1.2,12.3l3.5,2.8z" id="svg_143"/>
  <path fill="#FBB218" d="m396.6,231.4c0,0 6.9,21.8 49.4,6.2c0,0 23.6,6.4 27,3.3l0,-3.3l-9.8,-2.1l-7.4,-2.3l-36.6,-8l-22.6,6.2z" id="svg_144"/>
  <path fill="#FDFDFC" d="m440,281.4c0,0 -14.9,-63.7 33,-46.8l-2.6,-16.5c0,0 -52.8,-16.5 -40.9,63.3" id="svg_145"/>
  <path fill="#FBB218" d="m468,217.5c0,0 2.6,-14.5 -7.3,-51.6l-3.2,-0.2l0,35.4l10.5,16.4z" id="svg_146"/>
  <polygon fill="#FBDA72" points="444.70001220703125,157.20001220703125 457.4000244140625,169.20001220703125 460.5999755859375,165.89999389648438 460.5999755859375,160.20001220703125 " id="svg_147"/>
  <path fill="#FBB218" d="m455.4,118.6c-2,0 -4,0 -6.1,-0.1c-0.3,0 -0.6,0 -0.8,-0.1c-1.3,0 -2.7,-0.1 -4,-0.2c-0.3,0 -0.7,-0.1 -1,-0.2c-8,-0.2 -15.8,-0.2 -16.6,0.6c-1.7,1.7 5.9,5.7 5.9,5.7l8.1,-2.5l5.6,0.4l14.2,-3.4c-0.1,0 -2.2,-0.1 -5.3,-0.2z" id="svg_148"/>
  <path fill="#FBB218" d="m434.1,145c0,0 16.1,-27.7 27.6,-25.4l-1.1,-0.8l-8,0.8l-6.7,0.7l-5.1,1.5l-9,20.2l2.3,3z" id="svg_149"/>
  <path fill="#E9E6EB" d="m451.7,118.3c0,0 2,-1.1 4.8,-1.7s22,-4.9 45.7,8.1l-10.6,0l-2.8,0.8c0.1,0 -32.7,-9.2 -37.1,-7.2z" id="svg_150"/>
  <ellipse fill="#EDF4F4" cx="434.7" cy="449.2" rx="236.8" ry="16.1" id="svg_151"/>
  <ellipse fill="#D7E2E2" cx="579.1" cy="246.4" rx="17.5" ry="31.1" id="svg_152"/>
  <ellipse fill="#EDF4F4" cx="207.3" cy="260.3" rx="9.5" ry="16.8" id="svg_153"/>
  <ellipse fill="#EDF4F4" cx="563.1" cy="157.2" rx="17.5" ry="31.1" id="svg_154"/>
  <ellipse fill="#EDF4F4" cx="207.3" cy="337.8" rx="17.5" ry="31.1" id="svg_155"/>
  <rect x="469.6" y="19.4" fill="none" width="187" height="80.3" id="svg_156"/>
  <ellipse fill="#D7E2E2" cx="261.9" cy="61.2" rx="9.5" ry="16.8" id="svg_162"/>
  <g id="svg_163">
   <path fill="#F5F6FA" d="m97.5,18.7c3.4,1.7 3.5,3.9 2.6,6.4c-0.3,0.9 -1.5,1.7 -2,0.9c-1.5,-2.1 -0.5,-4.5 -0.6,-7.3z" id="svg_164"/>
   <path fill="#D7E2E2" d="m332.7,76.5l-309.6,0c-11,0 -19.9,-8.9 -19.9,-19.9l0,0c0,-11 8.9,-19.9 19.9,-19.9l309.6,0c11,0 19.9,8.9 19.9,19.9l0,0c0,11 -8.9,19.9 -19.9,19.9z" id="svg_165"/>
   <path fill="#FFFFFF" d="m259.5,69.4l-235.1,0c-7.1,0 -12.8,-5.7 -12.8,-12.8l0,0c0,-7.1 5.7,-12.8 12.8,-12.8l235.1,0c7.1,0 12.8,5.7 12.8,12.8l0,0c0.1,7 -5.7,12.8 -12.8,12.8z" id="svg_166"/>
   <path fill="#FFFFFF" d="m330.4,69.4l-26.4,0c-7.1,0 -12.8,-5.7 -12.8,-12.8l0,0c0,-7.1 5.7,-12.8 12.8,-12.8l26.4,0c7.1,0 12.8,5.7 12.8,12.8l0,0c0,7 -5.8,12.8 -12.8,12.8z" id="svg_167"/>
  </g>
  <rect x="21" y="50" fill="none" width="227.4" height="13.1" id="svg_168"/>
  <text x="33" y="60" fill="#D7E2E2" font-family="'KeepCalm-Medium'" font-size="11" id="svg_169">SEARCH FOR NEARBY DOCTORS</text>
  <ellipse fill="#D7E2E2" cx="215.8" cy="95.6" rx="8.8" ry="15.5" id="svg_170"/>
  <ellipse fill="#D7E2E2" cx="245.9" cy="126.7" rx="8.8" ry="15.5" id="svg_171"/>
  <rect x="304.3" y="50" fill="none" width="227.4" height="13.1" id="svg_172"/>
  <text x="305" y="59" fill="#D7E2E2" font-family="'KeepCalm-Medium'" font-size="11" id="svg_173">FIND</text>
  <g opacity="0.73" id="svg_174">
   <path fill-rule="evenodd" clip-rule="evenodd" fill="#FFFFFF" d="m308,165.1c1.2,-1.5 2.8,-1.5 2.8,-1.5s0.2,1.4 -0.9,2.8c-1.2,1.5 -2.6,1.2 -2.6,1.2s-0.3,-1.2 0.7,-2.5z" id="svg_175"/>
   <path fill-rule="evenodd" clip-rule="evenodd" fill="#FFFFFF" d="m307.4,168.6c0.6,0 1.7,-0.8 3.1,-0.8c2.5,0 3.5,1.8 3.5,1.8s-1.9,1 -1.9,3.3c0,2.7 2.4,3.6 2.4,3.6s-1.7,4.7 -3.9,4.7c-1,0 -1.8,-0.7 -2.9,-0.7c-1.1,0 -2.2,0.7 -2.9,0.7c-2,0 -4.6,-4.4 -4.6,-8c0,-3.5 2.2,-5.3 4.2,-5.3c1.2,-0.1 2.3,0.7 3,0.7z" id="svg_176"/>
  </g>
 </g>
</svg>