<svg width="636.6" height="589.9" xmlns="http://www.w3.org/2000/svg" xmlns:xlink="http://www.w3.org/1999/xlink">
 <g>
  <title>background</title>
  <rect fill="none" id="canvas_background" height="591.9" width="638.6" y="-1" x="-1"/>
 </g>
 <g>
  <title>Layer 1</title>
  <g id="svg_1">
   <g id="svg_2">
    <path id="svg_3" d="m175.7,461.4c0,0 376.7,69.4 444,-246.6s-235,-177.9 -278.7,-108.2s-65,95 -114.6,97.2c0.1,0 -414.4,108.9 -50.7,257.6z" fill="#EDF4F4"/>
    <ellipse id="svg_4" ry="21.6" rx="316.3" cy="564.7" cx="318.7" fill="#EDF4F4"/>
    <ellipse id="svg_5" ry="41.5" rx="23.4" cy="586.764465" cx="569.378457" fill="#D7E2E2" transform="matrix(0.3864,0.9223,-0.9223,0.3864,832.7337,-457.9602) "/>
    <ellipse id="svg_6" ry="41.5" rx="23.4" cy="10.367583" cx="705.245106" fill="#EDF4F4" transform="matrix(0.4953,-0.8687,0.8687,0.4953,131.7624,782.1921) "/>
    <ellipse id="svg_7" ry="20.8" rx="11.7" cy="-18.161822" cx="562.837317" fill="#D7E2E2" transform="matrix(-0.02678507,-0.9996,0.9996,-0.02678507,237.3489,687.1562) "/>
    <ellipse id="svg_8" ry="20.8" rx="11.7" cy="23.338178" cx="603.037317" fill="#D7E2E2" transform="matrix(-0.02678507,-0.9996,0.9996,-0.02678507,237.192,770.0181) "/>
   </g>
   <g id="svg_9">
    <path id="svg_10" d="m485.4,225.7c0,0 6.8,24.2 -31.9,33.7l-110,26.9c0,0 -12.1,3 -15.4,-9l-3.4,-12.3c0,0 -6.8,-24.2 31.9,-33.7l97.8,-23.9c0,0 24.3,-5.9 31,18.1l0,0.2l0,0z" fill="#DDAC8A"/>
    <path id="svg_11" d="m479.2,303.2c0,0 2.4,24 -35.8,26.5l-108.4,7.1c0,0 -11.9,0.8 -13.1,-11.1l-1.2,-12.2c0,0 -2.4,-24 35.8,-26.5l96.4,-6.3c0,0 23.9,-1.6 26.3,22.3l0,0.2l0,0z" fill="#DDAC8A"/>
    <path id="svg_12" d="m474.8,362.2c0,0 2.5,25.3 -37.7,27.9l-114.1,7.5c0,0 -12.5,0.8 -13.8,-11.7l-1.3,-12.8c0,0 -2.5,-25.3 37.7,-27.9l101.5,-6.7c0,0 25.2,-1.7 27.7,23.5l0,0.2l0,0z" fill="#DDAC8A"/>
    <path id="svg_13" d="m430.5,440.4c0,0 -2.1,22.7 -37.9,18.1l-101.7,-12.9c0,0 -11.1,-1.4 -10,-12.5l1.1,-11.6c0,0 2.1,-22.7 37.9,-18.1l90.4,11.5c0,0 22.4,2.8 20.3,25.3l-0.1,0.2l0,0z" fill="#DDAC8A"/>
    <g id="svg_14">
     <defs transform="translate(-249,-103) ">
      <polygon points="509.4,188.9 509.4,495.7 707.9,495.7 707.9,188.9 509.4,188.9     " id="SVGID_1_"/>
     </defs>
     <use x="-249" y="-103" id="svg_15" fill="#EDEDED" xlink:href="#SVGID_1_"/>
     <clipPath transform="translate(-249,-103) " id="SVGID_2_">
      <use x="-249" y="-103" id="svg_16" xlink:href="#SVGID_1_"/>
     </clipPath>
     <polygon id="svg_17" points="272.70001220703125,85.80000305175781 272.70001220703125,392.70001220703125 446.5999755859375,392.70001220703125 446.5999755859375,85.80000305175781 272.70001220703125,85.80000305175781 " fill="#FFFFFF" clip-path="url(#SVGID_2_)"/>
    </g>
    <path id="svg_18" d="m458.8,86.1l0,-8.6c0,0 0,-30.4 -37.9,-30.4l-122.6,0c0,0 -37.9,-2.9 -37.9,30.4l0,8.6l198.4,0l0,0zm-198.4,306.9l0,25.9c0,0 0,22.9 37.9,22.9l122.6,0c0,0 37.9,1.7 37.9,-31.5l0,-17.3l-198.4,0l0,0z" fill="#C7AF36"/>
    <polygon id="svg_19" points="343.5999755859375,65 343.5999755859375,70.5 387.9000244140625,70.5 387.9000244140625,65 343.5999755859375,65 " fill="#EDEDED"/>
    <polygon id="svg_20" points="331.4000244140625,65 331.4000244140625,70.5 338.79998779296875,70.5 338.79998779296875,65 331.4000244140625,65 " fill="#EDEDED"/>
    <path id="svg_21" d="m562.6,187.7l0,-32c0,0 0,-21.9 -19.7,-21.9l-106.6,0l-1.3,0l-41.6,0l22,20.3c0,0.5 0,1.1 0,1.7l0,32c0,0 0,21.9 19.7,21.9l107.9,0c-0.1,0 19.6,0 19.6,-22l0,0z" fill="#7ECDC2"/>
    <polygon id="svg_22" points="433.79998779296875,169.29998779296875 433.79998779296875,174.20001220703125 544.4000244140625,174.20001220703125 544.4000244140625,169.29998779296875 433.79998779296875,169.29998779296875 " fill="#FFFFFF"/>
    <polygon id="svg_23" points="433.79998779296875,183.5 433.79998779296875,188.39999389648438 512,188.39999389648438 512,183.5 433.79998779296875,183.5 " fill="#FFFFFF"/>
    <path id="svg_24" d="m437.3,352l0,-14.9c0,0 0,-10.2 -9.2,-10.2l-76.9,0l-0.6,0l-19.4,0l10.2,9.4c0,0.3 0,0.5 0,0.8l0,14.9c0,0 0,10.2 9.2,10.2l77.5,0c0,0 9.2,0 9.2,-10.2l0,0z" fill="#DBE093"/>
    <polygon id="svg_25" points="350.0999755859375,336.79998779296875 350.0999755859375,339.1000061035156 428.79998779296875,339.1000061035156 428.79998779296875,336.79998779296875 350.0999755859375,336.79998779296875 " fill="#FFFFFF"/>
    <polygon id="svg_26" points="350.0999755859375,343.3999938964844 350.0999755859375,345.70001220703125 428.79998779296875,345.70001220703125 428.79998779296875,343.3999938964844 350.0999755859375,343.3999938964844 " fill="#FFFFFF"/>
    <polygon id="svg_27" points="350.0999755859375,350 350.0999755859375,352.29998779296875 381.20001220703125,352.29998779296875 381.20001220703125,350 350.0999755859375,350 " fill="#FFFFFF"/>
    <path id="svg_28" d="m328.9,442.5c0,0 76.9,-61 38.6,-91.9c-23.5,-19 -38.1,18.7 -60.4,28.5c-35.9,15.9 -46.8,27.5 -46.8,27.5l0,-127c-5.6,1.6 -30.5,13.5 -40.1,27.4c-9.6,13.9 -59.1,150.5 -62.1,159.7c-1.4,4.4 -20.6,48.5 -25.7,54.9l155.7,0c12.5,-10.6 32.2,-35.3 40.8,-79.1l0,0z" fill="#E8BA9C"/>
    <path id="svg_29" d="m336.8,383.2c0,0 -16.6,-9.8 -9,-20.1c0,0 17,-25.1 31.5,-12.1c1.8,1.6 14.3,10 4.6,23.8l-3.2,4.6c0,0 -9.7,13.8 -23.5,4.1l-0.4,-0.3l0,0z" fill="#F0D0BA"/>
    <path id="svg_30" d="m414.9,289.1c12.4,0 22.4,-10 22.4,-22.4c0,-12.4 -10,-22.4 -22.4,-22.4c-12.4,0 -22.4,10 -22.4,22.4c0.1,12.4 10.1,22.4 22.4,22.4l0,0z" fill="#EDEDED"/>
    <path id="svg_31" d="m423.7,263.9c-1,-0.4 -1.3,-2.1 -0.6,-3.7c0.7,-1.7 2,-2.7 3,-2.3c1,0.4 1.3,2.1 0.6,3.7c-0.6,1.7 -2,2.7 -3,2.3l0,0z" fill="#EBA282"/>
    <path id="svg_32" d="m406.1,263.9c1,-0.4 1.3,-2.1 0.6,-3.7c-0.7,-1.7 -2,-2.7 -3,-2.3c-1,0.4 -1.3,2.1 -0.6,3.7c0.6,1.7 2,2.7 3,2.3l0,0z" fill="#EBA282"/>
    <g id="svg_33">
     <defs transform="translate(-249,-103) ">
      <polygon points="668.9,369.3 667.7,385 660.2,385 658.9,369.3 668.9,369.3     " id="SVGID_3_"/>
     </defs>
     <use x="-249" y="-103" id="svg_34" fill="#FABF97" xlink:href="#SVGID_3_"/>
     <clipPath transform="translate(-249,-103) " id="SVGID_4_">
      <use x="-249" y="-103" id="svg_35" xlink:href="#SVGID_3_"/>
     </clipPath>
     <path id="svg_36" d="m414.9,276.7c-6,0 -12.5,-8.9 -12.5,-19.1c0,-10.2 -3.7,-18.4 12.5,-18.4c16.1,0 12.5,8.2 12.5,18.4c0,10.2 -6.5,19.1 -12.5,19.1l0,0z" fill="#EBA282" clip-path="url(#SVGID_4_)"/>
    </g>
    <path id="svg_37" d="m414.9,275.2c-1.9,0 -7.2,-2.5 -9.1,-5.1c-1.3,-1.8 -0.7,-3 -0.7,-6.3c0,-8.1 -3.1,-18.1 9.8,-18.1c12.9,0 9.8,9.9 9.8,18.1c0,3.4 0.6,4.5 -0.8,6.3c-1.9,2.5 -7.1,5.1 -9,5.1l0,0z" fill="#FABF97"/>
    <path id="svg_38" d="m410.2,259.7c1,0.1 2,0.8 2.1,-0.1c0.1,-1.1 -0.9,-1.8 -1.9,-1.9c-0.8,-0.1 -1.9,0.7 -1.9,1.7c0,1 0.7,0.3 1.7,0.3l0,0z" fill="#294354"/>
    <path id="svg_39" d="m419.6,259.7c-1,0.1 -2,0.8 -2.1,-0.1c-0.1,-1.1 0.9,-1.8 1.9,-1.9c0.8,-0.1 1.9,0.7 1.9,1.7c0,1 -0.7,0.3 -1.7,0.3l0,0z" fill="#294354"/>
    <g id="svg_40">
     <defs transform="translate(-249,-103) ">
      <path d="m659.4,370.1c0.7,0 8.4,0 9.1,0c4.4,0 0.8,4.4 -4.1,4.7c-0.1,0 -0.4,0 -0.5,0c0,0 -0.4,0 -0.5,0c-4.9,-0.3 -8.4,-4.7 -4,-4.7l0,0z" id="SVGID_5_"/>
     </defs>
     <use x="-249" y="-103" id="svg_41" fill="#E36669" xlink:href="#SVGID_5_"/>
     <clipPath transform="translate(-249,-103) " id="SVGID_6_">
      <use x="-249" y="-103" id="svg_42" xlink:href="#SVGID_5_"/>
     </clipPath>
     <path id="svg_43" d="m418.9,265.7c0,0 1.1,0 1.1,1.1l0,0.5c0,0 0,1.1 -1.1,1.1l-7.9,0c0,0 -1.1,0 -1.1,-1.1l0,-0.5c0,0 0,-1.1 1.1,-1.1l7.9,0l0,0z" fill="#FFFFFF" clip-path="url(#SVGID_6_)"/>
     <path id="svg_44" d="m410.4,273.3c0.7,0 8.4,0 9.1,0c4.4,0 0.8,-4.4 -4.1,-4.7c-0.1,0 -0.4,0 -0.5,0c0,0 -0.4,0 -0.5,0c-4.9,0.4 -8.4,4.7 -4,4.7l0,0z" fill="#F59393" clip-path="url(#SVGID_6_)"/>
     <path id="svg_45" d="m417.8,270.8c0,0 0.8,0 0.8,0.8l0,0.4c0,0 0,0.8 -0.8,0.8l-5.8,0c0,0 -0.8,0 -0.8,-0.8l0,-0.4c0,0 0,-0.8 0.8,-0.8l5.8,0l0,0z" fill="#FFFFFF" clip-path="url(#SVGID_6_)"/>
    </g>
    <path id="svg_46" d="m426.8,245.6c-0.1,-0.6 -0.7,-0.5 -1.2,-0.5c-1.8,0.1 -2.2,-0.5 -5.9,-2.7c-3.7,-2.2 -7.4,-1.3 -9.9,0.6c-11.5,2.7 -4.8,18.3 -4.8,18.3s0,-8.2 3.5,-10.7c6,4.1 12,4.3 15.5,1.9c1.3,3.1 0.9,8.8 0.9,8.8s2.3,-5.8 1,-10.9c0.8,-1.3 1.1,-2.9 0.9,-4.8l0,0z" fill="#426271"/>
    <path id="svg_47" d="m431.1,289.3c-1.9,-5 -3.7,-9.3 -3.7,-9.3s0,-0.1 -0.1,-0.1c-2.5,-1.8 -8.3,-2.3 -8.3,-2.3l0,0l0,0l0,0c0,0 -0.3,3 -4.1,3c-3.8,0 -4.1,-3 -4.1,-3s-5.8,0.5 -8.3,2.3c-0.1,0 -0.1,0.1 -0.1,0.1s-1.8,4.3 -3.7,9.3c2.2,0.8 4.5,1.5 6.9,1.9l0,0c0,0 0,0 0,0c0.3,0.1 0.7,0.1 1,0.2c0.1,0 0.2,0 0.3,0c0.3,0 0.5,0.1 0.8,0.1c0.1,0 0.1,0 0.2,0c0.3,0 0.6,0.1 1,0.1c0.1,0 0.3,0 0.4,0c0.2,0 0.4,0 0.6,0.1c0.1,0 0.3,0 0.4,0c0.3,0 0.6,0.1 0.9,0.1l0,0c1.2,0.1 2.4,0.1 3.7,0.1c1.2,0 2.5,0 3.7,-0.1l0,0c0.3,0 0.6,0 0.9,-0.1c0.1,0 0.3,0 0.4,0c0.2,0 0.4,0 0.6,-0.1c0.1,0 0.3,0 0.4,0c0.3,0 0.6,-0.1 1,-0.1c0.1,0 0.1,0 0.2,0c0.3,0 0.6,-0.1 0.8,-0.1c0.1,0 0.2,0 0.3,0c2.7,-0.5 5.4,-1.2 7.9,-2.1c0,0 0,0 0,0l0,0z" fill="#F59393"/>
    <path id="svg_48" d="m283.3,298.5l0,-39.2c0,0 0,-10.2 9.2,-10.2l76.9,0l0.6,0l19.4,0l-10.2,9.4c0,0.3 0,0.5 0,0.8l0,39.2c0,0 0,10.2 -9.2,10.2l-77.5,0c0,0 -9.2,0 -9.2,-10.2l0,0z" fill="#D8A8CC"/>
    <polygon id="svg_49" points="292.0999755859375,259.1000061035156 292.0999755859375,261.29998779296875 370.9000244140625,261.29998779296875 370.9000244140625,259.1000061035156 292.0999755859375,259.1000061035156 " fill="#FFFFFF"/>
    <polygon id="svg_50" points="292.0999755859375,281 292.0999755859375,283.20001220703125 370.9000244140625,283.20001220703125 370.9000244140625,281 292.0999755859375,281 " fill="#FFFFFF"/>
    <polygon id="svg_51" points="292.0999755859375,273.70001220703125 292.0999755859375,275.8999938964844 370.9000244140625,275.8999938964844 370.9000244140625,273.70001220703125 292.0999755859375,273.70001220703125 " fill="#FFFFFF"/>
    <polygon id="svg_52" points="292.0999755859375,288.29998779296875 292.0999755859375,290.6000061035156 370.9000244140625,290.6000061035156 370.9000244140625,288.29998779296875 292.0999755859375,288.29998779296875 " fill="#FFFFFF"/>
    <polygon id="svg_53" points="292.0999755859375,295.6000061035156 292.0999755859375,297.8999938964844 356.5,297.8999938964844 356.5,295.6000061035156 292.0999755859375,295.6000061035156 " fill="#FFFFFF"/>
    <polygon id="svg_54" points="292.0999755859375,266.3999938964844 292.0999755859375,268.6000061035156 370.9000244140625,268.6000061035156 370.9000244140625,266.3999938964844 292.0999755859375,266.3999938964844 " fill="#FFFFFF"/>
    <path id="svg_55" d="m337.8,221.1c30.3,0 54.9,-24.6 54.9,-54.9c0,-30.3 -24.6,-54.9 -54.9,-54.9c-30.3,0 -54.9,24.6 -54.9,54.9c-0.1,30.3 24.5,54.9 54.9,54.9l0,0z" fill="#EDEDED"/>
    <path id="svg_56" d="m319,131.9c0,0 -12.7,0 -12.7,12.7l0,26.4c0,0 0,12.7 12.7,12.7l37.5,0c0,0 12.7,0 12.7,-12.7l0,-26.4c0,0 0,-12.7 -12.7,-12.7l-37.5,0l0,0z" fill="#426271"/>
    <path id="svg_57" d="m377.8,224.3c-2.3,-10.1 -5.5,-17.6 -9.8,-18.9c-12.8,-4.1 -27.1,-5.1 -24.1,-14.1c1.9,-5.7 -13.7,-5.7 -11.8,0c3,9 -9.7,10 -22.5,14.1c-5.5,1.8 -9.3,9.1 -11.9,18.9c12.4,4.5 25.9,6.9 40.1,6.9c14.1,0 27.6,-2.5 40,-6.9l0,0z" fill="#FCD9C1"/>
    <path id="svg_58" d="m318.4,160.4c2.4,-1 3.1,-4.9 1.5,-8.9c-1.6,-3.9 -4.8,-6.3 -7.2,-5.3c-2.4,1 -3.1,4.9 -1.5,8.9c1.5,3.9 4.8,6.3 7.2,5.3l0,0z" fill="#F4C9B4"/>
    <path id="svg_59" d="m357.1,160.4c-2.4,-1 -3.1,-4.9 -1.5,-8.9c1.6,-3.9 4.8,-6.3 7.2,-5.3c2.4,1 3.1,4.9 1.5,8.9c-1.5,3.9 -4.8,6.3 -7.2,5.3l0,0z" fill="#F4C9B4"/>
    <g id="svg_60">
     <defs transform="translate(-249,-103) ">
      <polygon points="577.4,273.8 579.7,308.1 593.9,308.1 596.3,273.8 577.4,273.8     " id="SVGID_7_"/>
     </defs>
     <use x="-249" y="-103" id="svg_61" fill="#FCD9C1" xlink:href="#SVGID_7_"/>
     <clipPath transform="translate(-249,-103) " id="SVGID_8_">
      <use x="-249" y="-103" id="svg_62" xlink:href="#SVGID_7_"/>
     </clipPath>
     <path id="svg_63" d="m337.8,190.8c11.3,0 23.6,-15.6 23.6,-34.9c0,-19.3 6.9,-34.9 -23.6,-34.9c-30.6,0 -23.6,15.6 -23.6,34.9c0,19.3 12.3,34.9 23.6,34.9l0,0z" fill="#F4C9B4" clip-path="url(#SVGID_8_)"/>
    </g>
    <path id="svg_64" d="m337.8,187.2c11.3,0 23.6,-15.6 23.6,-34.9c0,-19.3 6.9,-34.9 -23.6,-34.9c-30.6,0 -23.6,15.6 -23.6,34.9c0,19.2 12.3,34.9 23.6,34.9l0,0z" fill="#FCD9C1"/>
    <path id="svg_65" d="m377.8,224.3c-2.3,-10.1 -5.5,-17.6 -9.8,-18.9c-4.9,-1.6 -10,-2.7 -14.3,-4c-3.3,4.1 -9.2,6.9 -16,6.9c-6.6,0 -12.3,-2.6 -15.6,-6.5c-3.7,1.1 -8.1,2.2 -12.5,3.6c-5.5,1.8 -9.3,9.1 -11.9,18.9c12.4,4.5 25.9,6.9 40.1,6.9c14.1,0 27.6,-2.5 40,-6.9l0,0z" fill="#5DBF8E"/>
    <path id="svg_66" d="m369.2,141.6c0,-31.4 -19,-40.5 -31.2,-40.5c-12.1,0 -31.7,9.1 -31.7,40.5c0,14.6 2.9,10.8 2.9,10.8l23.8,-8.3l4.8,-19.8l4.8,19.8l23.8,8.3c-0.1,0 2.8,3.8 2.8,-10.8l0,0z" fill="#426271"/>
    <path id="svg_67" d="m347.3,172.9c-0.3,-0.4 -1.6,1.5 -6.4,-0.4c-1.3,-0.5 -2.8,0.9 -3.2,1.3c-0.4,-0.4 -1.9,-1.8 -3.2,-1.3c-4.8,2 -6.1,0 -6.4,0.4c-0.1,0.2 3.7,5.5 9.6,5.5c5.9,0 9.8,-5.3 9.6,-5.5l0,0z" fill="#F59393"/>
    <path id="svg_68" d="m349.3,151.9c-2.5,0.2 -4.9,2 -5.1,-0.4c-0.2,-2.7 2.2,-4.4 4.7,-4.7c1.9,-0.2 4.7,1.8 4.6,4.2c0,2.6 -1.7,0.7 -4.2,0.9l0,0z" fill="#294354"/>
    <path id="svg_69" d="m326.2,151.9c2.5,0.2 4.9,2 5.1,-0.4c0.2,-2.7 -2.2,-4.4 -4.7,-4.7c-1.9,-0.2 -4.7,1.8 -4.6,4.2c0,2.6 1.7,0.7 4.2,0.9l0,0z" fill="#294354"/>
    <path id="svg_70" d="m304.6,364.9c11.8,0 21.3,-9.5 21.3,-21.3s-9.5,-21.3 -21.3,-21.3c-11.8,0 -21.3,9.5 -21.3,21.3s9.5,21.3 21.3,21.3l0,0z" fill="#EDEDED"/>
    <path id="svg_71" d="m297.3,330.3c0,0 -4.9,0 -4.9,4.9l0,10.2c0,0 0,4.9 4.9,4.9l14.5,0c0,0 4.9,0 4.9,-4.9l0,-10.2c0,0 0,-4.9 -4.9,-4.9l-14.5,0l0,0z" fill="#426271"/>
    <path id="svg_72" d="m320.1,366.1c-0.9,-3.9 -2.1,-6.8 -3.8,-7.3c-4.9,-1.6 -10.5,-2 -9.3,-5.5c0.7,-2.2 -5.3,-2.2 -4.6,0c1.2,3.5 -3.8,3.9 -8.7,5.5c-2.1,0.7 -3.6,3.5 -4.6,7.3c4.8,1.7 10,2.7 15.5,2.7c5.5,0 10.7,-0.9 15.5,-2.7l0,0z" fill="#FCD9C1"/>
    <path id="svg_73" d="m297.1,341.4c0.9,-0.4 1.2,-1.9 0.6,-3.4c-0.6,-1.5 -1.9,-2.4 -2.8,-2.1c-0.9,0.4 -1.2,1.9 -0.6,3.4c0.6,1.5 1.9,2.5 2.8,2.1l0,0z" fill="#F4C9B4"/>
    <path id="svg_74" d="m312.1,341.4c-0.9,-0.4 -1.2,-1.9 -0.6,-3.4c0.6,-1.5 1.9,-2.4 2.8,-2.1c0.9,0.4 1.2,1.9 0.6,3.4c-0.6,1.5 -1.9,2.5 -2.8,2.1l0,0z" fill="#F4C9B4"/>
    <g id="svg_75">
     <defs transform="translate(-249,-103) ">
      <polygon points="550,448.4 550.9,461.7 556.4,461.7 557.3,448.4 550,448.4     " id="SVGID_9_"/>
     </defs>
     <use x="-249" y="-103" id="svg_76" fill="#FCD9C1" xlink:href="#SVGID_9_"/>
     <clipPath transform="translate(-249,-103) " id="SVGID_10_">
      <use x="-249" y="-103" id="svg_77" xlink:href="#SVGID_9_"/>
     </clipPath>
     <path id="svg_78" d="m304.6,353.2c4.4,0 9.2,-6.1 9.2,-13.5c0,-7.5 2.7,-13.5 -9.2,-13.5s-9.2,6.1 -9.2,13.5c0.1,7.4 4.8,13.5 9.2,13.5l0,0z" fill="#F4C9B4" clip-path="url(#SVGID_10_)"/>
    </g>
    <path id="svg_79" d="m304.6,351.7c4.4,0 9.2,-6.1 9.2,-13.5c0,-7.5 2.7,-13.5 -9.2,-13.5s-9.2,6.1 -9.2,13.5c0.1,7.5 4.8,13.5 9.2,13.5l0,0z" fill="#FCD9C1"/>
    <path id="svg_80" d="m320.1,366.1c-0.9,-3.9 -2.1,-6.8 -3.8,-7.3c-1.9,-0.6 -3.9,-1 -5.5,-1.5c-1.3,1.6 -3.6,2.7 -6.2,2.7c-2.5,0 -4.8,-1 -6.1,-2.5c-1.4,0.4 -3.1,0.8 -4.8,1.4c-2.1,0.7 -3.6,3.5 -4.6,7.3c4.8,1.7 10,2.7 15.5,2.7c5.5,-0.1 10.7,-1 15.5,-2.8l0,0z" fill="#E31E26"/>
    <path id="svg_81" d="m316.8,334.1c0,-12.2 -7.4,-15.7 -12.1,-15.7c-4.7,0 -12.3,3.5 -12.3,15.7c0,5.7 1.1,4.2 1.1,4.2l9.2,-3.2l1.9,-7.7l1.9,7.7l9.2,3.2c0,0 1.1,1.4 1.1,-4.2l0,0z" fill="#426271"/>
    <path id="svg_82" d="m308.3,346.2c-0.1,-0.2 -0.6,0.6 -2.5,-0.2c-0.5,-0.2 -1.1,0.3 -1.2,0.5c-0.1,-0.2 -0.7,-0.7 -1.2,-0.5c-1.8,0.8 -2.4,0 -2.5,0.2c0,0.1 1.5,2.1 3.7,2.1c2.3,0.1 3.8,-2 3.7,-2.1l0,0z" fill="#F59393"/>
    <path id="svg_83" d="m309.1,338c-1,0.1 -1.9,0.8 -2,-0.1c-0.1,-1 0.9,-1.7 1.8,-1.8c0.8,-0.1 1.8,0.7 1.8,1.6c0,1 -0.6,0.3 -1.6,0.3l0,0z" fill="#294354"/>
    <path id="svg_84" d="m300.1,338c1,0.1 1.9,0.8 2,-0.1c0.1,-1 -0.9,-1.7 -1.8,-1.8c-0.8,-0.1 -1.8,0.7 -1.8,1.6c0,1 0.6,0.3 1.6,0.3l0,0z" fill="#294354"/>
    <rect id="svg_85" height="12.8" width="115.1" fill="none" y="151.3" x="433.8"/>
    <text x="-249" y="-103" id="svg_86" font-size="7.892" font-family="'KeepCalm-Medium'" fill="#FFFFFF" transform="matrix(1,0,0,1,682.7794,260.8971) ">PHYSICIAN- DOCDUC</text>
   </g>
   <ellipse id="svg_87" ry="41.5" rx="23.4" cy="760.664465" cx="569.778457" fill="#EDF4F4" transform="matrix(0.3864,0.9223,-0.9223,0.3864,993.3851,-351.6176) "/>
  </g>
 </g>
</svg>