<svg width="598" height="502" xmlns="http://www.w3.org/2000/svg">

 <g>
  <title>background</title>
  <rect fill="none" id="canvas_background" height="504" width="600" y="-1" x="-1"/>
 </g>
 <g>
  <title>Layer 1</title>
  <g id="svg_1">
   <path id="svg_2" d="m147.6,437.1c0,0 370.8,68.3 437,-242.7s-231.3,-175.1 -274.3,-106.5c-43,68.6 -63.9,93.5 -112.7,95.7c-0.1,-0.1 -408,107.2 -50,253.5z" fill="#EDF4F4"/>
   <ellipse id="svg_3" ry="3.3" rx="24.5" cy="429.5" cx="568.5" fill="#EDF4F4"/>
   <path id="svg_4" d="m503.7,95.9l-352,0c-7.8,0 -14.1,-6.3 -14.1,-14.1l0,-33.1c0,-7.8 6.3,-14.1 14.1,-14.1l352,0c7.8,0 14.1,6.3 14.1,14.1l0,33.1c0,7.8 -6.3,14.1 -14.1,14.1z" fill="#DADDE0"/>
   <path id="svg_5" d="m277,350c-1.8,0.2 -3.6,0.4 -5.5,0.4c-39.7,0 -79.3,0 -119,0c-11,0 -14.9,-4 -14.9,-15.1c0,-90.1 0,-180.3 -0.1,-270.4c0,-4.7 1,-6.2 6,-6.2c122.8,0.1 245.6,0.1 368.4,0.1c1.6,0 3.3,0 5.5,0c0.1,2.1 0.3,3.8 0.3,5.6c0,90.6 0,181.3 0,271.9c0,9.1 -4.4,14 -13.1,14.1c-24.7,0.1 -49.3,0.1 -74,0c-1.3,0 -2.6,-0.4 -3.9,-0.7c2.4,-4.6 4.8,-9.3 7.1,-13.9c3,-0.2 6,-0.4 8.9,-0.6c6,0 12,0 18,-0.1c1,0 2,0 2.9,0c8.9,0 17.8,0 26.7,0c10.3,1.7 12.1,0.1 12.1,-10.2c0,-13.6 0,-27.2 0,-40.8c0,-7.3 -1.1,-8.4 -8.3,-8.5c-15.4,0 -30.9,-0.1 -46.3,-0.2c-0.4,-0.7 -0.8,-1.5 -1.3,-2.1c-11,-13.8 -22.2,-27.4 -32.8,-41.4c-4.4,-5.8 -8.6,-11.5 -15.3,-14.6c-10.5,-4.9 -21.2,-9.5 -31.8,-14.3c-2.3,-1.9 -4.7,-3.7 -7,-5.6c0,-2.2 0,-4.3 0,-6.5c3,-6.7 5.7,-13.4 8.9,-20c3.1,-6.4 2.4,-12.6 -0.6,-18.7c-2.1,-4.3 -4.3,-8.6 -6.7,-12.7c-4.4,-7.6 -16.3,-13.1 -25,-11.5c-7.2,1.3 -14.4,2.8 -21.4,4.6c-11.9,3.1 -16.1,19.1 -7.6,28.2c0.2,1.5 0.4,3 0.6,4.5c-1.7,0.9 -4,1.3 -4.8,2.7c-1.6,2.6 3.1,12.4 6.1,13.8c1.1,4.3 2.2,8.6 3.3,12.9c0.5,1.7 1.2,3.4 1.5,5.1c0.4,2.6 0.6,5.2 0.9,7.8c-0.6,0.3 -1.1,0.5 -1.7,0.8c-7.8,4.5 -15.5,9 -23.3,13.5c-0.4,0.5 -0.8,1.1 -1.2,1.6l0.2,-0.1c-2.4,3.7 -6.5,7.3 -7,11.2c-1.6,13.5 -1.9,27.2 -2.7,40.7c-9.5,0.1 -18.9,0.2 -28.4,0.2c-6,0.1 -7.8,1.7 -7.8,7.6c0,14 0,27.9 0.1,41.9c-0.7,9.4 0.3,10.5 9.6,10.5c8.3,0 16.7,0.1 25,0.1c-0.2,4.9 -0.4,9.6 -0.6,14.4zm52.3,-279.4c-19.7,0 -39.3,0.1 -59,-0.1c-4.7,0 -6.7,1.6 -6.6,6.4c0.2,6.8 0,13.7 0.1,20.5c0,5.1 1.8,7.1 6.8,7.1c39.2,0 78.3,0 117.5,0c4.5,0 6.8,-2.1 6.8,-6.7c0,-6.8 0,-13.7 0,-20.5c0,-6 -0.8,-6.8 -7,-6.8c-19.6,0.1 -39.1,0.1 -58.6,0.1zm-143.6,10c-8.8,0 -17.6,0.1 -26.4,-0.1c-3.2,-0.1 -6.3,0.8 -5.9,4.1c0.2,1.8 3.7,4.6 5.7,4.7c18.1,0.4 36.2,0.4 54.3,0c1.8,0 4.8,-2.8 5.2,-4.7c0.6,-3.3 -2.5,-4.1 -5.4,-4.1c-9.2,0.1 -18.4,0.1 -27.5,0.1zm-15.9,22c3.6,0 7.3,0 10.9,0c3.1,0 5.6,-1.4 4.9,-4.6c-0.4,-1.7 -3,-4 -4.8,-4.1c-7.3,-0.5 -14.6,-0.5 -21.8,0c-2.1,0.2 -4,2.9 -6,4.5c2,1.4 3.8,3.7 5.9,4.1c3.5,0.6 7.3,0.1 10.9,0.1z" fill="#4D96D1"/>
   <path id="svg_6" d="m434,335.8c-2.4,4.6 -4.8,9.3 -7.1,13.9c-2.6,0.1 -5.3,0.1 -7.9,0.2c-1.3,-0.7 -2.6,-1.9 -3.9,-1.9c-4.5,0.2 -9.5,-2.8 -13.3,2c-2,0.1 -4,0.3 -6,0.3c-32.4,0 -64.8,0 -97.2,0c-2,0 -3.9,-0.3 -5.9,-0.5c0.4,-4.6 0.7,-9.3 1.1,-13.9c7.1,-0.1 14.3,-0.2 21.4,-0.2c4.5,0 6.8,-1.9 6.8,-6.5c0,-15.8 0,-31.6 0,-47.3c0,-4.6 -2.2,-6.5 -6.8,-6.4c-6.5,0.1 -12.9,-0.1 -19.4,-0.2c-0.3,-2.8 -0.3,-5.6 -0.9,-8.3c-2.3,-9.1 -5.1,-18 -7.3,-27.2c-1.3,-5.5 -1.6,-11.1 1.3,-16.4l-0.2,0.1c0.4,-0.5 0.8,-1.1 1.2,-1.6c7.8,-4.5 15.5,-9 23.3,-13.5c0.6,0 1.2,-0.1 1.8,-0.1c-2.9,8.1 -3,16.2 -0.3,24.9c5.3,-3.2 10,-5.9 14.7,-8.7c0.3,0 0.7,0 1,0c0.5,0.1 1,0.2 1.5,0.3c3.9,3 7.9,6 11.7,9.2c2.1,1.8 3.5,1.6 5.3,-0.6c5.2,-6.4 10.5,-12.8 16,-19c3.1,-3.5 4,-7.1 2.1,-11.4c10.6,4.7 21.3,9.4 31.8,14.3c6.7,3.1 10.9,8.9 15.3,14.6c10.6,14 21.9,27.6 32.8,41.4c0.5,0.6 0.9,1.4 1.3,2.1c-6.1,0.1 -12.3,0.2 -18.4,0.2c-3.6,0 -5.9,1.4 -5.9,5.2c-0.1,16.4 0,32.9 0,49.3c0,3.4 1.9,5.2 5.2,5.4c1.6,0.1 3.2,0.2 4.9,0.3zm-23.6,-2c0.9,-1.6 2.4,-3.2 2.5,-4.9c0.6,-12.4 1,-24.8 1.1,-37.3c0.1,-4.3 -0.4,-8.6 -1.4,-12.7c-0.3,-1.4 -3.1,-3.2 -4.7,-3.3c-23,-0.2 -45.9,-0.1 -68.9,-0.1c-3.2,0 -5,1.6 -5.1,4.9c0,16.6 -0.1,33.3 0,49.9c0,3.6 2,5.5 5.7,5.4c4.2,-0.1 8.3,-0.2 12.5,-0.2c18.2,0.1 36.4,0.1 54.6,0.1c1.2,-0.1 2.4,-1.2 3.7,-1.8z" fill="#65C7C4"/>
   <path id="svg_7" d="m293.8,336c-0.4,4.6 -0.7,9.3 -1.1,13.9c-5.2,0 -10.4,0 -15.6,0.1c0.2,-4.7 0.3,-9.5 0.5,-14.2c4.5,-0.1 9,-0.3 13.5,-0.4c0.9,0.2 1.8,0.4 2.7,0.6z" fill="#7CC692"/>
   <path id="svg_8" d="m187,39.3c1.6,2.2 4,4.1 4.4,6.5c0.7,3.4 -2,5.5 -5.4,5.7c-3.6,0.2 -6.1,-2.2 -5.7,-5.4c0.3,-2.4 2.8,-4.5 4.3,-6.7c0.9,-0.1 1.6,-0.1 2.4,-0.1z" fill="#7CC692"/>
   <path id="svg_9" d="m175.5,46.9c-2,1.5 -3.8,3.9 -6,4.4c-3.3,0.7 -6.3,-1.8 -5.9,-5c0.3,-2.2 3.2,-5.3 5.3,-5.7c1.9,-0.3 4.3,2.5 6.5,4c0.1,0.7 0.1,1.5 0.1,2.3z" fill="#FCD265"/>
   <path id="svg_10" d="m157.8,47.5c-1.4,1 -3.4,3.5 -5.8,3.8c-3.3,0.5 -5.5,-1.9 -5.4,-5.6c0.1,-3.4 2.1,-5.4 5.3,-5.4c3.4,0 5.8,1.7 5.9,7.2z" fill="#F16D83"/>
   <path id="svg_11" d="m401.8,350c3.8,-4.8 8.8,-1.9 13.3,-2c1.3,-0.1 2.6,1.2 3.9,1.9c-5.8,0 -11.5,0.1 -17.2,0.1z" fill="#D7A484"/>
   <path id="svg_12" d="m329.3,70.6c19.5,0 39,0 58.5,0c6.2,0 7,0.8 7,6.8c0,6.8 0,13.7 0,20.5c0,4.5 -2.3,6.7 -6.8,6.7c-39.2,0 -78.3,0 -117.5,0c-4.9,0 -6.7,-2 -6.8,-7.1c0,-6.8 0.2,-13.7 -0.1,-20.5c-0.2,-4.8 1.9,-6.4 6.6,-6.4c19.8,0.1 39.5,0 59.1,0zm-9.5,5.5c0,6 -0.2,9.9 0.1,13.9c0.1,1.3 1.3,3.4 2.2,3.5c5.3,0.9 10.7,1.2 16.2,1.8c0.2,-3.4 0.4,-7.6 0.6,-11.3c-6.2,-3.9 -14.2,0.4 -19.1,-7.9zm61.9,12.2c-7.7,-7.3 -18.1,-7.1 -24.7,0.7c1.3,0.8 2.6,2.4 3.8,2.3c1.3,-0.2 3.2,-1.8 3.4,-3c0.6,-3.4 3,-3.6 5.1,-3.1c1.9,0.4 4.2,1.6 5.1,3.1c2.5,3.9 4,4.2 7.3,0zm-93.3,-9.6c-3.5,1.5 -6.5,2.6 -9.4,4.1c-0.6,0.3 -0.7,1.9 -1,2.9c0.9,0.1 2,0.6 2.6,0.2c5.1,-3.5 10.2,-3.1 15.4,-0.2c0.8,0.4 2,-0.1 3,-0.1c-0.4,-0.9 -0.5,-2.4 -1.2,-2.7c-2.9,-1.6 -6.1,-2.8 -9.4,-4.2zm-6.9,9.8c0.3,0.4 0.5,0.7 0.8,1.1c3.8,0.3 7.6,0.6 11.4,0.7c0.5,0 1,-1.6 1.5,-2.4c-2.6,-0.8 -5.2,-2.2 -7.8,-2.1c-1.9,0 -3.9,1.8 -5.9,2.7z" fill="#4D96D1"/>
   <path id="svg_13" d="m307.4,160.8c-8.5,-9 -4.3,-25.1 7.6,-28.2c7.1,-1.8 14.2,-3.3 21.4,-4.6c8.7,-1.6 20.6,4 25,11.5c2.4,4.1 4.7,8.4 6.7,12.7c3,6.1 3.7,12.3 0.6,18.7c-3.2,6.6 -6,13.3 -8.9,20c-0.2,-4.2 0.4,-7.9 3.2,-11.6c1.7,-2.2 1.7,-5.9 1.8,-8.9c0,-2.9 -1.7,-4.6 -5,-3.6c-2.6,-0.1 -5.2,-0.3 -7.8,-0.4c-2.8,-5.8 -5.6,-11.5 -8.6,-17.6c-8.2,7.5 -18.1,9.6 -29.2,7.1c-3.4,-0.8 -5.2,1.4 -5.7,4.7c-0.4,0.1 -0.8,0.2 -1.1,0.2z" fill="#502A1F"/>
   <path id="svg_14" d="m359.8,166.9c3.3,-1 5,0.7 5,3.6c0,3 -0.1,6.7 -1.8,8.9c-2.8,3.6 -3.4,7.4 -3.2,11.6c0,2.2 0,4.3 0,6.5c-0.3,1.1 -0.5,2.3 -0.8,3.4c-1.1,-0.7 -2.1,-1.5 -3.2,-2.2c0.2,-1.5 0.5,-3 0.8,-5.3c-9.4,11.5 -19.9,18.8 -34.5,18.1c-2.4,-1.2 -4.8,-2.4 -7.2,-3.7l-0.2,-0.2c-0.3,-2.6 -0.4,-5.2 -0.9,-7.8c-0.3,-1.7 -1,-3.4 -1.5,-5.1c2.1,-0.4 4.2,-0.8 6.4,-1.1c-0.5,4.8 2.4,6.6 6.5,6.9c4.1,0.3 6.5,-2.1 7.7,-7.2c-4.8,0 -9,0 -13.2,0c2.6,-1.9 5.2,-3.7 8.2,-5.9c-3.9,-1.6 -10.1,1.1 -9.3,-6.1c1.8,-3 3.6,-6 5.8,-9.8c1,2.3 1.7,3.8 2.3,5.3c1.7,4.6 5.6,5.4 9.7,5.3c4.3,-0.1 8.1,-1.4 8.6,-6.4c0.4,-4.6 3.3,-4.7 6.7,-4.2c0.1,1.8 0,3.7 0.4,5.4c0.3,1 1.5,1.8 2.3,2.7c0.8,-0.8 2.1,-1.4 2.4,-2.4c0.6,-2 0.6,-4.2 0.9,-6.3c0.7,-1.4 1.4,-2.7 2.1,-4z" fill="#D7A484"/>
   <path id="svg_15" d="m359,200.8c0.3,-1.1 0.5,-2.3 0.8,-3.4c2.3,1.9 4.7,3.7 7,5.6c1.9,4.3 1,7.9 -2.1,11.4c-5.5,6.2 -10.8,12.6 -16,19c-1.8,2.2 -3.1,2.4 -5.3,0.6c-3.8,-3.2 -7.8,-6.1 -11.7,-9.2c0,-0.4 0,-0.8 0,-1.3c2.4,-1.8 4.7,-3.7 7.1,-5.5c5.1,-3.4 10.3,-6.5 15.1,-10.2c2.3,-1.6 3.5,-4.6 5.1,-7z" fill="#FEFEFE"/>
   <path id="svg_16" d="m359.8,166.9c-0.7,1.3 -1.4,2.7 -2,4c-2,0.2 -4,0.4 -6,0.6c-3.4,-0.5 -6.2,-0.4 -6.7,4.2c-0.5,5 -4.3,6.3 -8.6,6.4c-4.1,0.1 -8,-0.7 -9.7,-5.3c-0.5,-1.5 -1.3,-2.9 -2.3,-5.3c-2.3,3.8 -4.1,6.8 -5.8,9.8c-3.2,0.2 -6.3,0.4 -9.5,0.6c-3,-1.4 -7.6,-11.3 -6.1,-13.8c0.8,-1.4 3.2,-1.8 4.8,-2.7c1.6,-0.2 3.2,-0.3 4.8,-0.5c5.8,0.7 11.5,4.1 17.5,0.7c4.2,-0.1 8.3,-0.1 12.5,-0.2c3.1,0.4 6.1,0.7 9.2,1.1c2.6,0.1 5.2,0.3 7.9,0.4zm-25.1,0.2c-2.1,1.7 -5.7,3.1 -6,5.1c-0.6,4.8 2.6,7.6 7.1,7.5c4.8,0 7,-2.3 6.8,-7.3c-0.2,-4.9 -4,-3.8 -7.9,-5.3zm-25.5,10.4c-0.4,0.5 -0.7,0.9 -1.1,1.4c2.4,0.2 5.4,1.4 7,0.4c2.1,-1.4 3.5,-4.3 4.5,-6.9c0.3,-0.8 -1.7,-3.5 -2.7,-3.6c-2.8,-0.2 -5.7,0.6 -8.5,1.1c-0.1,0 -0.1,1.5 0,2.2c0.2,1.9 0.5,3.6 0.8,5.4z" fill="#CACBCB"/>
   <path id="svg_17" d="m309.2,181.9c3.2,-0.2 6.3,-0.4 9.5,-0.6c-0.8,7.2 5.4,4.5 9.3,6.1c-3.1,2.2 -5.6,4.1 -8.2,5.9c-0.3,0.1 -0.6,0.2 -1,0.3c-2.1,0.4 -4.2,0.8 -6.4,1.1c-1,-4.3 -2.1,-8.6 -3.2,-12.8z" fill="#D29471"/>
   <path id="svg_18" d="m312.7,164.8c-1.6,0.2 -3.2,0.3 -4.8,0.5c-0.2,-1.5 -0.4,-3 -0.6,-4.5c0.4,-0.1 0.7,-0.2 1.1,-0.2c1.4,0.1 3,0.4 4.3,0.1c2.8,-0.8 5.3,-1.3 7,2.1c-2.5,0.7 -4.7,1.4 -7,2z" fill="#734A3E"/>
   <path id="svg_19" d="m315,208.3c-0.6,0 -1.2,0.1 -1.8,0.1c0.6,-0.3 1.2,-0.5 1.7,-0.8c0,0 0.2,0.2 0.2,0.1c0,0.3 0,0.4 -0.1,0.6z" fill="#D7A484"/>
   <path id="svg_20" d="m289.8,222c-0.4,0.5 -0.8,1.1 -1.2,1.6c0.4,-0.6 0.8,-1.1 1.2,-1.6z" fill="#F3B223"/>
   <path id="svg_21" d="m338.9,218.1c-2.4,1.8 -4.7,3.7 -7.1,5.5c-0.5,0.3 -1,0.6 -1.5,0.9c-0.3,0 -0.7,0 -1,0c-2.4,-4.4 -7.7,-7.2 -7.1,-13.1c14.6,0.7 25.1,-6.6 34.5,-18.1c-0.4,2.4 -0.6,3.8 -0.8,5.3c-0.8,1 -1.6,2 -2.5,3c-4.8,5.5 -9.7,11 -14.5,16.5z" fill="#D29471"/>
   <path id="svg_22" d="m322.2,211.4c-0.6,6 4.7,8.7 7.1,13.1c-4.7,2.8 -9.3,5.5 -14.7,8.7c-2.6,-8.7 -2.6,-16.8 0.3,-24.9c0.1,-0.2 0.1,-0.4 0,-0.6c2.5,1.3 4.9,2.5 7.3,3.7z" fill="#F3F3F3"/>
   <path id="svg_23" d="m330.3,224.6c0.5,-0.3 1,-0.6 1.5,-0.9c0,0.4 0,0.8 0,1.3c-0.5,-0.2 -1,-0.3 -1.5,-0.4z" fill="#F3F3F3"/>
   <path id="svg_24" d="m319.8,76.1c4.9,8.2 12.9,3.9 19.1,7.9c-0.2,3.6 -0.4,7.8 -0.6,11.3c-5.5,-0.6 -10.9,-0.9 -16.2,-1.8c-0.9,-0.2 -2.1,-2.2 -2.2,-3.5c-0.3,-3.9 -0.1,-7.9 -0.1,-13.9z" fill="#99BBE3"/>
   <path id="svg_25" d="m381.7,88.3c-3.2,4.2 -4.8,3.9 -7.3,0c-1,-1.5 -3.3,-2.7 -5.1,-3.1c-2.2,-0.4 -4.6,-0.3 -5.1,3.1c-0.2,1.2 -2.1,2.8 -3.4,3c-1.1,0.2 -2.5,-1.4 -3.8,-2.3c6.6,-7.9 17,-8 24.7,-0.7z" fill="#F16D83"/>
   <path id="svg_26" d="m288.4,78.7c3.3,1.4 6.5,2.6 9.5,4.1c0.7,0.3 0.8,1.8 1.2,2.7c-1,0.1 -2.3,0.5 -3,0.1c-5.2,-2.9 -10.3,-3.3 -15.4,0.2c-0.6,0.4 -1.7,-0.1 -2.6,-0.2c0.3,-1 0.3,-2.6 1,-2.9c2.8,-1.4 5.9,-2.5 9.3,-4z" fill="#99BBE3"/>
   <path id="svg_27" d="m281.5,88.5c2,-1 4,-2.8 5.9,-2.8c2.6,0 5.2,1.4 7.8,2.1c-0.5,0.8 -1,2.4 -1.5,2.4c-3.8,-0.1 -7.6,-0.4 -11.4,-0.7c-0.3,-0.2 -0.5,-0.6 -0.8,-1z" fill="#99BBE3"/>
   <path id="svg_28" d="m312.9,164.8c2.2,-0.6 4.4,-1.3 7,-2c-1.6,-3.5 -4.2,-2.9 -7,-2.1c-1.3,0.4 -2.9,0 -4.3,-0.1c0.5,-3.2 2.2,-5.5 5.7,-4.7c11.1,2.5 21,0.5 29.2,-7.1c3,6.1 5.8,11.9 8.6,17.6c-3.1,-0.4 -6.1,-0.7 -9.2,-1.1c-2.8,-1.6 -5.3,-3.8 -8.3,-4.5c-3.3,-0.9 -5.5,0.8 -4.2,4.8c-6,3.3 -11.7,0 -17.5,-0.8z" fill="#D7A484"/>
   <path id="svg_29" d="m338.9,218.1c4.8,-5.5 9.7,-11 14.5,-16.5c0.9,-1 1.7,-2 2.5,-3c1.1,0.7 2.1,1.5 3.2,2.2c-1.6,2.4 -2.8,5.3 -5,7c-4.9,3.8 -10.1,6.9 -15.2,10.3z" fill="#65C7C4"/>
   <path id="svg_30" d="m318.8,193.6c0.3,-0.1 0.6,-0.2 1,-0.3c4.2,0 8.4,0 13.2,0c-1.2,5.1 -3.6,7.5 -7.7,7.2c-4,-0.3 -7,-2.1 -6.5,-6.9z" fill="#734A3E"/>
   <path id="svg_31" d="m351.7,171.4c2,-0.2 4,-0.4 6,-0.6c-0.3,2.1 -0.3,4.3 -0.9,6.3c-0.3,0.9 -1.6,1.6 -2.4,2.4c-0.8,-0.9 -2,-1.7 -2.3,-2.7c-0.4,-1.7 -0.3,-3.6 -0.4,-5.4z" fill="#734A3E"/>
   <path id="svg_32" d="m334.7,167.1c3.9,1.5 7.8,0.4 7.9,5.3c0.2,5 -2,7.2 -6.8,7.3c-4.5,0 -7.8,-2.7 -7.1,-7.5c0.3,-2 3.9,-3.4 6,-5.1z" fill="#D7A484"/>
   <path id="svg_33" d="m309.2,177.5c-0.3,-1.7 -0.6,-3.5 -0.9,-5.3c-0.1,-0.8 -0.1,-2.2 0,-2.2c2.8,-0.5 5.7,-1.3 8.5,-1.1c1,0.1 3,2.8 2.7,3.6c-1,2.5 -2.3,5.5 -4.5,6.9c-1.6,1 -4.6,-0.2 -7,-0.4c0.5,-0.6 0.9,-1.1 1.2,-1.5z" fill="#D7A484"/>
   <path id="svg_34" d="m330.2,165.6c-1.3,-3.9 0.9,-5.6 4.2,-4.8c3,0.8 5.5,3 8.3,4.5c-4.2,0.1 -8.3,0.2 -12.5,0.3z" fill="#734A3E"/>
   <path id="svg_35" d="m381.8,318.6c0.1,-0.4 0.3,-0.9 0.4,-1.3c0.1,0.1 0.3,0.2 0.4,0.2c-0.3,0.4 -0.5,0.8 -0.8,1.1l0,0z" fill="#D29471"/>
   <path id="svg_36" d="m228.3,331.2l0,0c-1,0 -1.8,-0.8 -1.8,-1.8l0,-259c0,-1 0.8,-1.8 1.8,-1.8l0,0c1,0 1.8,0.8 1.8,1.8l0,259c0,1 -0.8,1.8 -1.8,1.8z" fill="#6DB4E3"/>
   <path id="svg_37" d="m205.3,127.3l-38.6,0c-8.7,0 -15.7,-7 -15.7,-15.7l0,-23.4c0,-8.7 7,-15.7 15.7,-15.7l38.6,0c8.7,0 15.7,7 15.7,15.7l0,23.4c0,8.7 -7.1,15.7 -15.7,15.7z" fill="#B09FCB"/>
   <path id="svg_38" d="m205.3,279.7l-38.6,0c-8.7,0 -15.7,-7 -15.7,-15.7l0,-23.4c0,-8.7 7,-15.7 15.7,-15.7l38.6,0c8.7,0 15.7,7 15.7,15.7l0,23.4c0,8.7 -7.1,15.7 -15.7,15.7z" fill="#354B96"/>
   <path id="svg_39" d="m205.3,201.7l-38.6,0c-8.7,0 -15.7,-7 -15.7,-15.7l0,-23.4c0,-8.7 7,-15.7 15.7,-15.7l38.6,0c8.7,0 15.7,7 15.7,15.7l0,23.4c0,8.7 -7.1,15.7 -15.7,15.7z" fill="#7CC692"/>
   <path id="svg_40" d="m408.3,107l-139.4,0c-3.5,0 -6.3,-2.8 -6.3,-6.3l0,-20.8c0,-3.5 2.8,-6.3 6.3,-6.3l139.4,0c3.5,0 6.3,2.8 6.3,6.3l0,20.8c0,3.5 -2.8,6.3 -6.3,6.3z" fill="#4D96D1"/>
   <polygon id="svg_41" points="279.0999755859375,275.3999938964844 277.5,335.79998779296875 244.20001220703125,336.5 235.79998779296875,295.6000061035156 239.79998779296875,252.29998779296875 " fill="#4D96D1"/>
   <path id="svg_42" d="m448.1,275.4c0,0 7,5.9 5,12.3s-19.1,48 -19.1,48l71.1,6.9l4,-37l-9,-53.3l-37,-2.9l-15,26z" fill="#4D96D1"/>
   <rect id="svg_43" height="78.1" width="125.7" fill="#65C7C4" y="266.6" x="291.6"/>
   <polygon id="svg_44" points="295.79998779296875,275.20001220703125 293.4000244140625,341.20001220703125 277,342.70001220703125 280,259.20001220703125 " fill="#7CC692"/>
   <path id="svg_45" d="m434,335.8l19.1,-48l0,-4.8l-5,-7.5l-14.1,-6.6l-15,10.9c0,0 -4.8,55.2 0,56.9c4.8,1.6 4.8,1.6 4.8,1.6l10.2,-2.5z" fill="#65C7C4"/>
   <circle id="svg_46" r="6.8" cy="45.4" cx="152.3" fill="#F16D83"/>
   <circle id="svg_47" r="6.8" cy="45.4" cx="186" fill="#7CC692"/>
   <circle id="svg_48" r="6.8" cy="46" cx="169.5" fill="#FCD265"/>
   <path id="svg_49" d="m472,258.6l-200.6,0c-10.3,0 -18.7,-8.4 -18.7,-18.7l0,-150.7c0,-10.3 8.4,-18.7 18.7,-18.7l200.6,0c10.3,0 18.7,8.4 18.7,18.7l0,150.7c0,10.3 -8.4,18.7 -18.7,18.7z" stroke-miterlimit="10" stroke-width="4" stroke="#A4D3EE" fill="none"/>
   <polygon id="svg_50" points="291.5999755859375,255 294.79998779296875,267 439.0999755859375,263.79998779296875 428.20001220703125,250.20001220703125 " fill="#65C7C4"/>
   <g id="svg_51">
    <g id="svg_52">
     <path id="svg_53" d="m330.5,232.5c-5.3,9 -7.4,20.9 -2.3,30.4c1.9,3.5 5,6 8.1,8.3c4.7,3.5 9,7.7 12.8,12.2c7.7,9.4 11.5,21.7 6.4,33.2c-0.8,1.8 1.8,3.3 2.6,1.5c8.3,-18.9 -4.1,-36.6 -18.6,-48.3c-4.2,-3.3 -7.9,-6.1 -10,-11.2c-1.5,-3.7 -1.4,-8 -0.9,-11.9c0.7,-4.4 2.2,-8.9 4.5,-12.7c1,-1.7 -1.6,-3.2 -2.6,-1.5l0,0z" fill="#7CC692"/>
    </g>
   </g>
   <path id="svg_54" d="m295.8,275.2c-5.5,0.1 -11.1,0.1 -16.6,0.2c0.8,-13.6 1.1,-27.2 2.7,-40.7c0.5,-4 4.5,-7.5 7,-11.2c-2.9,5.3 -2.6,10.9 -1.3,16.4c2.2,9.1 5,18.1 7.3,27.2c0.6,2.5 0.6,5.4 0.9,8.1z" fill="#7CC692"/>
   <path id="svg_55" d="m480.1,87.3l-114.9,0c-0.9,0 -1.6,-0.7 -1.6,-1.6l0,0c0,-0.9 0.7,-1.6 1.6,-1.6l114.9,0c0.9,0 1.6,0.7 1.6,1.6l0,0c0,0.9 -0.7,1.6 -1.6,1.6z" fill="#A4D3EE"/>
   <path id="svg_56" d="m312.6,87.6l-48.4,0c-0.6,0 -1,-0.5 -1,-1l0,-1.1c0,-0.6 0.5,-1 1,-1l48.4,0c0.6,0 1,0.5 1,1l0,1.1c0.1,0.5 -0.4,1 -1,1z" fill="#A4D3EE"/>
   <line id="svg_57" y2="119.2" x2="179.2" y1="123.2" x1="179.2" fill="none"/>
   <line id="svg_58" y2="85.4" x2="213.4" y1="89.3" x1="213.4" fill="none"/>
   <path id="svg_59" d="m192.8,124.3l-27.3,0c-6.6,0 -11.9,-5.3 -11.9,-11.9l0,-15.7c0,-6.6 5.3,-11.9 11.9,-11.9l27.3,0c6.6,0 11.9,5.3 11.9,11.9l0,15.7c0,6.6 -5.3,11.9 -11.9,11.9z" fill="#A391BF"/>
   <path id="svg_60" d="m193.3,274.7l-28.3,0c-6.3,0 -11.4,-5.1 -11.4,-11.4l0,-16.7c0,-6.3 5.1,-11.4 11.4,-11.4l28.3,0c6.3,0 11.4,5.1 11.4,11.4l0,16.7c0,6.3 -5.1,11.4 -11.4,11.4z" fill="#293475"/>
   <path id="svg_61" d="m193.3,197.3l-28.3,0c-6.3,0 -11.4,-5.1 -11.4,-11.4l0,-16.7c0,-6.3 5.1,-11.4 11.4,-11.4l28.3,0c6.3,0 11.4,5.1 11.4,11.4l0,16.8c0,6.3 -5.1,11.3 -11.4,11.3z" fill="#66B27B"/>
   <path id="svg_62" d="m139.9,437.6l-97.4,0c-1.3,0 -2.4,-1.1 -2.4,-2.4l0,0c0,-1.3 1.1,-2.4 2.4,-2.4l97.4,0c1.3,0 2.4,1.1 2.4,2.4l0,0c-0.1,1.3 -1.1,2.4 -2.4,2.4z" fill="#6DB4E3"/>
   <path id="svg_63" d="m401.8,228.2l37.4,51.5c0,0 9.9,8.4 -5.2,32.6" fill="#24A89E"/>
   <g id="svg_64">
    <path id="svg_65" d="m111.2,355.8l-3.2,-80.1c0,0 -8.2,-35.5 -29.9,-33l-17.5,-1.4c0,0 -26,19.1 -28.7,30.3s-2.7,16 -2.7,16l20.2,54.5l-11.3,36.5l27.8,18.1l45.3,-40.9z" fill="#A0D8E2"/>
    <path id="svg_66" d="m71.4,228.5c-1.6,-5.3 -3.2,-10.5 -4.8,-15.8c-0.5,-1.7 -1.2,-3.4 -1.8,-5c3.7,-0.6 1.4,-2.6 0.8,-3.9c-2.7,-5.3 -3.5,-10.7 -1.3,-16.3c2.1,-5.3 4.8,-5.7 9.7,-2.6c2.4,1.6 5.7,2.7 8.5,2.5c6.3,-0.3 12.6,-1.5 18.9,-2.3c-0.2,-0.6 -0.7,-2 -1.3,-3.6c8.6,-3.3 13.2,1.5 16.8,8.4c0.4,-0.3 0.8,-0.7 1.1,-1c-0.6,-2.2 -1.1,-4.5 -1.8,-7.1c5.7,3 7.2,8.3 4.6,13.6c-0.8,1.5 -0.5,3.5 -0.7,5.3c-5.3,1.4 -6.5,5 -6.1,10.1c0.2,2.2 -1.3,4.4 -2,6.7c-0.5,-0.1 -1.1,-0.3 -1.6,-0.4c-0.1,-1.6 0.2,-3.4 -0.4,-4.8c-1,-2.5 -2.6,-4.8 -4.1,-7c-0.2,-0.2 -2.4,0.3 -2.4,0.7c-0.5,2.7 -0.7,5.4 -0.9,8.1c0,0.4 0.4,0.9 0.8,1.3c2.7,3 1.6,5.7 -0.6,8.4c-3.3,3.9 -6.4,7.9 -9.6,11.8c-3.3,-1.3 -6.7,-2.6 -10,-3.9c-4,-1 -7.9,-2.1 -11.8,-3.2zm-3.9,-30.4c1,8.1 4.4,12.3 10.8,13.9c-3.6,-4.5 -6.8,-8.7 -10.8,-13.9z" fill="#502A1F"/>
    <path id="svg_67" d="m29.2,287.6c3.1,1 6.5,1.5 9.2,3.1c5.4,3.2 10.4,7.1 15.8,10.4c3.6,2.3 5,4.5 4.2,9.3c-2.3,12.8 -3.4,25.9 -5.4,38.8c-0.4,2.8 -2,5.9 -4,8c-5.9,6.4 -8.3,16.4 -4.9,23.2c-2.6,4.5 -5.2,9.1 -8,13.5c-0.7,1.2 -2.1,1.9 -3.1,2.9c0.4,-4.8 0.7,-9.6 1.2,-14.4c0.7,-6.2 1.5,-12.4 2.3,-18.6c0.6,-1.4 1.7,-2.8 1.6,-4.1c-0.6,-7.9 -1.1,-15.8 -2.4,-23.6c-2.1,-12.2 -5.1,-24.2 -7.2,-36.3c-0.7,-4 0.4,-8.1 0.7,-12.2z" fill="#79B6C1"/>
    <path id="svg_68" d="m104.7,424.8c-7.6,-0.2 -15.2,-0.4 -22.8,-0.6c-2.9,-0.2 -5.8,-0.5 -8.7,-0.7c1.4,-7.2 2.9,-14.4 4.3,-21.7c0.9,-4.5 1.3,-9.1 6.7,-11.1c1,-0.4 1.7,-2.7 1.8,-4.2c0.3,-2.6 0.2,-5.3 0.2,-7.9c1.4,0.7 3,1.2 4.3,2c6.9,4.3 13.7,8.7 20.5,13c0,8.1 -0.3,16.3 0.1,24.4c0.4,5.2 -1,7.6 -6.4,6.8z" fill="#86BECC"/>
    <path id="svg_69" d="m111.1,393.7c-6.8,-4.3 -13.6,-8.7 -20.5,-13c-1.3,-0.8 -2.9,-1.4 -4.3,-2c-0.1,-1.7 -0.1,-3.3 -0.2,-5c-0.3,-0.7 -0.5,-1.4 -0.8,-2.1c0.3,-3 0.6,-5.9 1,-8.9c0.3,-0.7 0.5,-1.4 0.8,-2c1.4,-6.9 3,-13.7 4.2,-20.6c0.2,-1 -0.7,-2.1 -1.1,-3.2c0.1,-0.7 0.1,-1.3 0.3,-1.9c3,-9.5 3.4,-9.1 12,-4.6c7.5,3.9 8.4,10.2 8.5,17c0.3,15.3 0.1,30.8 0.1,46.3z" fill="#79B6C1"/>
    <path id="svg_70" d="m86.1,373.7c0.1,1.7 0.1,3.3 0.2,5c0,2.6 0.1,5.3 -0.2,7.9c-0.2,1.5 -0.8,3.8 -1.8,4.2c-5.4,2 -5.8,6.6 -6.7,11.1c-1.4,7.2 -2.9,14.5 -4.3,21.7c0,0 -0.3,0.3 -0.3,0.3c-6.3,0 -12.5,-0.1 -18.8,-0.1c-4.7,-0.1 -9.3,-0.2 -14,-0.3c1.3,-3 2.1,-6.4 4,-8.9c5.4,-6.9 11.3,-13.4 16.8,-20.3c2,-2.4 3.3,-5.4 4.9,-8.1c3.8,-0.4 7.5,-0.9 11.3,-1.2c3.3,-0.2 4.7,-2.3 4.9,-5.2c0.1,-3.3 0.5,-6.8 -0.4,-9.8c-1.5,-4.9 -0.1,-9 1.6,-13.3c2.5,-6.5 4.8,-13.2 7.1,-19.8c0.4,1.1 1.3,2.2 1.1,3.2c-1.3,6.9 -2.8,13.7 -4.2,20.6c-0.3,0.7 -0.5,1.4 -0.8,2c-0.3,3 -0.6,5.9 -1,8.9c0.1,0.7 0.3,1.4 0.6,2.1z" fill="#79B6C1"/>
    <path id="svg_71" d="m29.2,287.6c-0.3,4 -1.4,8.2 -0.8,12.1c2.1,12.2 5.1,24.2 7.2,36.3c1.3,7.8 1.8,15.7 2.4,23.6c0.1,1.3 -1,2.7 -1.6,4.1c1.5,-2.1 1.3,-3.8 -1.3,-4.5c-4.1,-1.2 -8.2,-2.5 -12.4,-3.2c-4.6,-0.7 -8.4,1 -10.5,5.5c-0.4,-4.1 -0.8,-8.2 -1.2,-12.3c-0.4,-4.4 1.3,-7.8 4.6,-11c1.9,-1.8 2.7,-5.2 3.2,-8c2.9,-16.1 5.4,-32.3 8.3,-48.4c0.7,-3.6 2.3,-7 3.5,-10.6c0.4,0.1 0.8,0.2 1.2,0.3c-0.3,3 -0.6,6 -0.8,9c-0.6,0.7 -1.2,1.4 -1.8,2.1c0,1.8 0,3.4 0,5z" fill="#86BECC"/>
    <path id="svg_72" d="m120.1,200.7c0.2,-1.8 0,-3.8 0.7,-5.3c2.6,-5.2 1.1,-10.5 -4.6,-13.6c0.6,2.6 1.2,4.9 1.8,7.1c-0.4,0.3 -0.8,0.7 -1.1,1c-3.6,-6.9 -8.2,-11.7 -16.8,-8.4c0.6,1.6 1.1,3.1 1.3,3.6c-6.4,0.8 -12.6,2 -18.9,2.3c-2.8,0.1 -6.1,-1 -8.5,-2.5c-4.9,-3.2 -7.6,-2.7 -9.7,2.6c-2.2,5.7 -1.4,11 1.3,16.3c0.6,1.3 2.9,3.3 -0.8,3.9c-2.9,-6.1 -6.7,-12 -4.2,-19.2c0.7,-2 1.6,-4.2 3.1,-5.5c4.7,-4.2 9.4,-8.4 14.6,-11.8c6.3,-4.2 13.7,-5.8 20.9,-3c7.3,2.9 14.8,6 21.2,10.5c10.4,7.3 10.2,13.7 0.7,21.8c-0.3,0.1 -0.6,0.2 -1,0.2z" fill="#734A3E"/>
    <path id="svg_73" d="m65.8,386.1c-1.6,2.7 -2.9,5.7 -4.9,8.1c-5.5,6.9 -11.4,13.4 -16.8,20.3c-1.9,2.5 -2.7,5.9 -4,8.9c-0.7,1.4 -1.5,2.7 -2.2,4.1c-0.6,0.3 -1.1,0.5 -1.7,0.8c-1.3,0.2 -2.7,0.4 -4,0.5c2.8,-6 2.7,-12.2 0.8,-18.2c-0.6,-1.9 -2.5,-4 -4.4,-4.7c-2.5,-1 -5.5,-0.9 -8.2,-1.2c0.1,-2.4 0.2,-4.7 0.3,-7.1c4.2,3 8,2.8 12.3,-0.9c1.1,-1 2.4,-1.7 3.1,-2.9c2.8,-4.4 5.3,-9 8,-13.5c6.1,6.5 14,5.6 21.7,5.8z" fill="#C9B86F"/>
    <path id="svg_74" d="m33,396.7c-4.3,3.7 -8.1,4 -12.3,0.9c-1.3,-6.8 -2.4,-13.7 -4,-20.5c-1.2,-5.3 -2.9,-10.4 -4.4,-15.6c2.1,-4.5 5.8,-6.3 10.5,-5.6c4.2,0.7 8.3,2 12.4,3.2c2.6,0.8 2.8,2.5 1.3,4.5c-0.8,6.2 -1.6,12.4 -2.3,18.6c-0.5,4.9 -0.8,9.7 -1.2,14.5z" fill="#CEBB67"/>
    <path id="svg_75" d="m120.1,200.7c0.3,0 0.7,-0.1 1,-0.1c1.4,4.2 3.1,7.8 0.2,12.8c-2.4,4.2 -2,10 -2.6,15.1c-0.5,4.4 -2,7.1 -6.7,8.5c-4.2,1.3 -7.8,4.2 -12,6.6c-0.3,-0.4 -1.4,-1.6 -2.4,-2.9c-1.5,-1.7 -3.1,-3.4 -4.6,-5.1c3.2,-4 6.3,-8 9.6,-11.8c2.3,-2.7 3.3,-5.4 0.6,-8.4c-0.3,-0.4 -0.8,-0.9 -0.8,-1.3c0.2,-2.7 0.4,-5.4 0.9,-8.1c0.1,-0.4 2.3,-1 2.4,-0.7c1.5,2.2 3,4.5 4.1,7c0.6,1.4 0.3,3.2 0.4,4.8c0.5,0.1 1.1,0.3 1.6,0.4c0.7,-2.2 2.2,-4.5 2,-6.7c-0.2,-5.1 1,-8.7 6.3,-10.1z" fill="#C9B86F"/>
    <path id="svg_76" d="m20.4,404.7c2.8,0.3 5.7,0.2 8.2,1.2c1.8,0.8 3.8,2.8 4.4,4.7c1.9,6.1 2,12.3 -0.8,18.2c-3.1,1.4 -6.2,3.6 -9.4,4.1c-5.6,0.9 -8.2,-2.4 -6.2,-7.6c2.5,-6.6 4.7,-13.3 3.8,-20.6z" fill="#CEBB67"/>
    <path id="svg_77" d="m93.1,235.6c1.5,1.7 3.1,3.4 4.6,5.1c-0.9,1 -2.1,2 -2.5,3.2c-0.6,1.7 -0.6,3.6 -0.9,5.5c-5.8,-2.4 -11,-4.6 -16.2,-6.7c1.6,-3.7 -1,-9.3 5,-10.9c3.3,1.3 6.7,2.6 10,3.8z" fill="#86BECC"/>
    <path id="svg_78" d="m83.1,231.8c-6,1.7 -3.4,7.3 -5,10.9c-5.8,-0.5 -11.7,-0.9 -17.5,-1.4c-0.3,-0.4 -0.5,-0.8 -0.8,-1.2c3.9,-3.9 7.7,-7.7 11.6,-11.6c3.9,1.1 7.8,2.2 11.7,3.3z" fill="#79B6C1"/>
    <path id="svg_79" d="m29.2,282.8c0.6,-0.7 1.2,-1.4 1.8,-2.1c-0.5,0.7 -1.1,1.4 -1.8,2.1z" fill="#E8E8E8"/>
    <path id="svg_80" d="m104.4,430.6c0.2,-0.7 0.3,-1.4 0.5,-2.1c-0.2,0.7 -0.3,1.4 -0.5,2.1z" fill="#D9DADB"/>
    <path id="svg_81" d="m77.1,424.8c-1.3,-0.1 -2.6,-0.1 -3.9,-0.2c0,-0.3 -0.1,-0.5 -0.2,-0.8c0,0 0.3,-0.3 0.3,-0.3c2.9,0.2 5.8,0.5 8.7,0.7c-1.7,0.3 -3.3,0.5 -4.9,0.6z" fill="#B4B4B4"/>
    <path id="svg_82" d="m67.5,198.1c4,5.1 7.3,9.3 10.8,13.9c-6.4,-1.5 -9.9,-5.8 -10.8,-13.9z" fill="#734A3E"/>
    <path id="svg_83" d="m86.1,373.7c-0.3,-0.7 -0.5,-1.4 -0.8,-2.1c0.3,0.7 0.5,1.4 0.8,2.1z" fill="#D9DADB"/>
    <path id="svg_84" d="m86.3,362.7c0.3,-0.7 0.5,-1.4 0.8,-2c-0.3,0.7 -0.5,1.3 -0.8,2z" fill="#D9DADB"/>
   </g>
   <circle id="svg_85" r="1.8" cy="238.6" cx="334.6" fill="#24A89E"/>
   <circle id="svg_86" r="1.8" cy="276.7" cx="352.7" fill="#24A89E"/>
   <circle id="svg_87" r="1.8" cy="268.8" cx="344.8" fill="#24A89E"/>
   <circle id="svg_88" r="1.8" cy="260.9" cx="336.4" fill="#24A89E"/>
   <circle id="svg_89" r="1.8" cy="249.4" cx="331.8" fill="#24A89E"/>
   <circle id="svg_90" r="1.8" cy="297.8" cx="363" fill="#24A89E"/>
   <circle id="svg_91" r="1.8" cy="287.1" cx="359.4" fill="#24A89E"/>
   <path id="svg_92" d="m548.6,252.5l-1.8,0c-1.2,0 -2.1,-0.9 -2.1,-2.1l0,-210.3c0,-1.2 0.9,-2.1 2.1,-2.1l1.8,0c1.2,0 2.1,0.9 2.1,2.1l0,210.4c0,1.1 -1,2 -2.1,2z" fill="#6DB4E3"/>
   <path id="svg_93" d="m562.2,252.4l-2.2,0c-0.7,0 -1.3,-0.6 -1.3,-1.3l0,-97.9c0,-0.7 0.6,-1.3 1.3,-1.3l2.2,0c0.7,0 1.3,0.6 1.3,1.3l0,97.9c0,0.7 -0.6,1.3 -1.3,1.3z" fill="#6DB4E3"/>
   <ellipse id="svg_94" ry="16.1" rx="236.8" cy="475.7" cx="299.1" fill="#DFE9E9"/>
   <g id="svg_95">
    <circle id="svg_96" r="20.700001" cy="116.7" cx="448.1" stroke-miterlimit="10" stroke="#E91D2A" fill="#FFFFFF"/>
    <g id="svg_97">
     <rect id="svg_98" height="31.9" width="5.3" fill="#E91D2A" y="100.7" x="445.5"/>
     <rect id="svg_99" height="6" width="31.9" fill="#E91D2A" y="113.7" x="432.1"/>
    </g>
   </g>
   <g id="svg_100">
    <circle id="svg_101" r="25.5" cy="311.9" cx="434" stroke-miterlimit="10" stroke-width="2" stroke="#6EBE49" fill="none"/>
    <circle id="svg_102" r="21.6" cy="311.9" cx="434" fill="#73BF47"/>
   </g>
   <g id="svg_103">
    <circle id="svg_104" r="26.299999" cy="311.9" cx="282" stroke-miterlimit="10" stroke-width="2" stroke="#DB425F" fill="none"/>
    <circle id="svg_105" r="22.200001" cy="312.4" cx="282" fill="#DB425F"/>
   </g>
   <g id="svg_106">
    <path id="svg_107" d="m555.7,307.2c1,2.3 1.9,4.6 2.9,6.8c0.6,1.3 1.5,2.6 2.3,3.9c1.3,-0.8 3,-1.4 3.7,-2.6c1.4,-2.3 2.2,-4.8 3.1,-7.3c2.1,-5.9 6.4,-8.5 11.7,-6.8c5.3,1.7 8.5,7.5 6.3,12.9c-1.5,3.6 -4.1,6.8 -6.5,10c-1.1,1.5 -2.9,2.3 -4.2,3.7c-1.4,1.5 -2.4,3.3 -3.6,4.9c1.9,0.7 3.7,1.7 5.7,2c3.7,0.6 5.8,3.2 4.5,6.7c-0.7,1.8 -2,3.5 -3.5,4.6c-2,1.5 -4.5,2.4 -6.8,3.3c-2.3,1 -5.6,1.1 -5.3,4.4c0.3,3.2 3.4,3.4 6.1,4.2c1.7,0.5 4.1,1.7 4.5,3.1c0.4,1.7 -0.3,4.7 -1.6,5.6c-4.1,2.9 -8.7,5 -13.2,7.4c-0.7,0.2 -1.4,0.3 -2.1,0.5c-6.7,-0.1 -13.3,-0.2 -20,-0.3c-0.1,-1.1 0,-2.2 -0.2,-3.2c-2.4,-13.1 3.3,-25.9 15,-32.2c7.7,-4.1 13,-10.2 17.1,-17.5c0.6,-1.1 0.6,-2.5 1,-4.2c-1,0.4 -1.3,0.5 -1.5,0.6c-0.3,0.4 -0.6,0.9 -0.8,1.4c-3.8,7.9 -9.3,14 -17.3,18.3c-14.6,7.9 -18,22.6 -15.1,36.8c-0.2,0 -0.4,0.1 -0.7,0.2c-2.7,0.1 -5.5,0.3 -8.2,0.4c0,-1 0,-2 0,-3.1c-0.3,-2.2 -0.6,-4.5 -0.8,-6.7c-0.6,-8.3 -1.6,-16.5 -1.4,-24.8c0.1,-3.6 2.5,-7.5 4.7,-10.6c1.7,-2.5 4.5,-2.4 6.7,0.4c0.8,1 2.2,1.6 3.4,2.3c0.7,-1.5 1.9,-2.8 2.1,-4.4c0.7,-3.9 0.6,-8 1.4,-11.9c1.2,-5.5 5.7,-9.2 10.6,-8.8z" fill="#2B3C88"/>
    <path id="svg_108" d="m555.7,307.2c-4.9,-0.3 -9.3,3.3 -10.5,9c-0.8,3.9 -0.7,8 -1.4,11.9c-0.3,1.5 -1.4,2.9 -2.1,4.4c-1.1,-0.8 -2.6,-1.3 -3.4,-2.3c-2.2,-2.9 -4.9,-3 -6.7,-0.4c-2.2,3.2 -4.5,7 -4.7,10.6c-0.3,8.2 0.8,16.5 1.4,24.8c0.2,2.3 0.5,4.5 0.8,6.7c-6.7,-3.9 -13.3,-8.1 -17.6,-14.8c-3.6,-5.6 -1.9,-10.8 4.1,-13.4c1.1,-0.5 2.3,-0.7 3.4,-1c4.9,-1.4 5.6,-4.1 2.1,-8.1c-2.2,-2 -4.4,-4 -6.5,-6l0,0c-0.3,-0.6 -0.6,-1.1 -0.9,-1.7l0,0.1c-0.5,-1.5 -1.1,-2.9 -1.6,-4.4c-1.2,-3.6 0.1,-6.3 3.3,-8.1c2.6,-1.5 6.7,-2.4 7.5,-4.5c0.8,-2.1 -1.9,-5.4 -2.9,-8.2c-3.6,-9.4 1.3,-19.7 10.9,-22.4c5,-1.4 7.8,0.7 7.8,5.8c0,3.2 -0.3,6.4 -0.1,9.6c0.1,1.4 1.3,2.7 2,4.1c1.1,-0.7 2.5,-1.2 3.3,-2.2c2.2,-2.4 5.2,-3 7.1,-0.1c2.2,3 3.2,7 4.7,10.6z" fill="#7CC692"/>
    <path id="svg_109" d="m521.2,334.5c3.5,4 2.8,6.7 -2.1,8.1c-1.2,0.3 -2.4,0.5 -3.4,1c-6,2.6 -7.7,7.8 -4.1,13.4c4.3,6.7 10.8,10.9 17.6,14.8c0,1 0,2 0,3.1c-1.6,0.1 -3.2,0.1 -4.8,0.2c-0.6,0 -1.2,0 -1.7,0c-0.7,-0.1 -1.3,-0.2 -2,-0.3c-0.6,-0.2 -1.3,-0.3 -1.9,-0.5c-4.2,-0.6 -8.5,-0.8 -12.6,-1.9c-3.8,-1 -7.7,-2.5 -10.9,-4.7c-5.6,-3.8 -5.2,-8.8 0.6,-12.4c1.5,-0.9 3.1,-1.7 4.4,-2.7c4.7,-3.7 4.2,-6.7 -1.2,-8.9c-6.9,-2.8 -9.6,-7.9 -7.7,-14.5c1.8,-6.2 6.4,-8.8 13.1,-6.8c3.3,1 6.3,2.9 9.5,4.4l0,-0.1c0.3,0.6 0.6,1.1 0.9,1.7l0,0c1,3 1.8,6.6 6.3,6.1z" fill="#F3B223"/>
    <path id="svg_110" d="m539.6,374.2c-0.6,0 -1.1,0 -1.7,0c-2.9,-14.1 0.5,-28.9 15.1,-36.8c7.9,-4.3 13.5,-10.3 17.3,-18.3c0.2,-0.5 0.5,-1 0.8,-1.4c0.1,-0.2 0.4,-0.2 1.5,-0.6c-0.4,1.7 -0.4,3.1 -1,4.2c-4.1,7.3 -9.4,13.4 -17.1,17.5c-11.8,6.2 -17.5,19.1 -15,32.2c0.1,1.1 0.1,2.2 0.1,3.2z" fill="#285BAA"/>
    <path id="svg_111" d="m521.2,334.5c-4.5,0.5 -5.2,-3.1 -6.5,-6c2.1,1.9 4.3,4 6.5,6z" fill="#FEFEFE"/>
    <path id="svg_112" d="m514.7,328.5c-0.3,-0.6 -0.6,-1.1 -0.9,-1.7c0.3,0.6 0.6,1.1 0.9,1.7z" fill="#FEFEFE"/>
    <path id="svg_113" d="m538.9,409.1c-13.3,0 -24.3,-13.3 -26.3,-30.7l-0.8,0l0,3.5l10.5,49.1l34.9,0l8.3,-52.6l-0.3,0c-2,17.4 -13,30.7 -26.3,30.7z" fill="#734A3E"/>
   </g>
   <path id="svg_114" d="m448.1,275.4c0,0 10.4,5.3 3.4,16.3" fill="#65C7C4"/>
   <path id="svg_115" d="m155.5,447.7l-97.4,0c-1.3,0 -2.4,-1.1 -2.4,-2.4l0,0c0,-1.3 1.1,-2.4 2.4,-2.4l97.4,0c1.3,0 2.4,1.1 2.4,2.4l0,0c0,1.3 -1.1,2.4 -2.4,2.4z" fill="#6DB4E3"/>
   <ellipse id="svg_116" ry="31.1" rx="17.5" cy="566.21417" cx="683.20727" fill="#EDF4F4" transform="matrix(0.3864,0.9223,-0.9223,0.3864,881.7747,-590.3914) "/>
   <ellipse id="svg_117" ry="16.8" rx="9.5" cy="366.21417" cx="153.60727" fill="#EDF4F4" transform="matrix(0.3864,0.9223,-0.9223,0.3864,372.4482,-224.591) "/>
   <ellipse id="svg_118" ry="31.1" rx="17.5" cy="688.01417" cx="666.20727" fill="#EDF4F4" transform="matrix(0.3864,0.9223,-0.9223,0.3864,983.6905,-499.9749) "/>
   <ellipse id="svg_119" ry="31.1" rx="17.5" cy="421.31417" cx="132.50727" fill="#EDF4F4" transform="matrix(0.3864,0.9223,-0.9223,0.3864,410.2099,-171.3074) "/>
  </g>
 </g>
</svg>